<?xml version="1.0" standalone="no"?>
<!DOCTYPE svg PUBLIC "-//W3C//DTD SVG 1.1//EN" "http://www.w3.org/Graphics/SVG/1.1/DTD/svg11.dtd" >
<svg>
<metadata>
Created by FontForge 20090622 at Thu Sep 17 10:18:39 2015
 By deploy user
 
</metadata>
<defs>
<font id="Compact" horiz-adv-x="0" >
  <font-face 
    font-family="Compact"
    font-weight="400"
    font-stretch="normal"
    units-per-em="1000"
    panose-1="0 0 0 0 0 0 0 0 0 0"
    ascent="800"
    descent="-200"
    x-height="672"
    cap-height="840"
    bbox="-31 -280 859 1015"
    underline-thickness="50"
    underline-position="-55"
    unicode-range="U+0020-U+2219"
  />
<missing-glyph 
 />
    <glyph glyph-name=".notdef" 
 />
    <glyph glyph-name="glyph1" 
 />
    <glyph glyph-name="glyph2" horiz-adv-x="351" 
 />
    <glyph glyph-name="glyph3" unicode=" " horiz-adv-x="351" 
 />
    <glyph glyph-name="glyph4" unicode="!" horiz-adv-x="226" 
d="M56 0v114h114v-114h-114v0zM68 190l-12 650h114l-12 -650h-90v0z" />
    <glyph glyph-name="glyph5" unicode="&#x22;" horiz-adv-x="405" 
d="M163 700l-28 -214h-38l-28 214h94v0zM336 700l-28 -214h-38l-28 214h94v0z" />
    <glyph glyph-name="glyph6" unicode="#" horiz-adv-x="603" 
d="M188 587l22 102h85l-22 -102h125l22 102h83l-22 -102h80l-18 -83h-80l-34 -150h80l-18 -84h-80l-27 -120h-83l27 120h-125l-27 -120h-84l27 120h-77l18 84h77l33 150h-77l18 83h77v0zM221 354h125l34 150h-125l-34 -150v0z" />
    <glyph glyph-name="glyph7" unicode="$" horiz-adv-x="378" 
d="M42 291h119v-206q0 -9 7 -14.5t15 -7.5q3 0 5.5 -0.5t4.5 -0.5q9 0 16 6t7 17v190q0 17 -3 26.5t-9 17.5q-2 3 -5 6.5t-7 7.5l-96 107q-8 10 -12 13.5t-7 5.5t-6.5 5t-9.5 10l-5.5 7.5t-4.5 7.5q-5 10 -5.5 20.5t-0.5 24.5v4v4v181v13v14v11.5t1 11.5q3 30 23.5 55
t81.5 26v66h91v-66h2h2h2h2q43 0 60.5 -24t22.5 -53q2 -15 2.5 -29t0.5 -25v-147h-119v177v1.5v1.5q-1 7 -7.5 13.5t-16.5 6.5q-12 0 -22 -6.5t-10 -16.5v-171q0 -25 4.5 -35.5t12.5 -18.5q3 -4 7.5 -8t9.5 -10l104 -113q3 -4 6.5 -7.5l6.5 -6.5q10 -10 16.5 -23t6.5 -39
v-206v-2v-3v-20t-2 -22q-3 -31 -20.5 -56t-65.5 -25h-1.5h-0.5h-1.5h-1.5v-98h-91v97q-2 1 -4.5 1h-4.5q-50 0 -70.5 23t-25.5 52q-3 14 -3.5 27.5t-0.5 24.5v0.5v0.5v176v0z" />
    <glyph glyph-name="glyph8" unicode="%" horiz-adv-x="605" 
d="M475 -14h-65q-59 1 -73 23.5t-15 50.5v7v7v163q0 7 0.5 14.5t1.5 14.5q3 25 20.5 45.5t65.5 20.5h65q40 0 58 -16.5t24 -35.5q4 -13 5 -24.5t1 -18.5v-163q0 -47 -17 -64t-38 -21q-8 -2 -16 -2h-15h-0.5h-1.5v-1zM418 246v-180q0 -9 6 -16t14 -8q1 -1 2 -1h2q2 0 5 0.5
t6 2.5q5 2 9.5 7.5t4.5 14.5v180q0 10 -7 17t-15 8h-1.5h-1.5q-2 0 -3.5 -0.5t-3.5 -0.5q-6 -3 -11.5 -9t-5.5 -15v0zM65 1l367 839l109 -1l-367 -838h-109v0zM196 502h-66h-0.5h-0.5h-10.5t-11.5 1q-24 1 -44.5 17.5t-20.5 70.5v162v13t1 14q3 26 19.5 47t67.5 21h66
q39 0 57 -16t24 -36q4 -12 5 -24t1 -19v-163q0 -46 -16.5 -63.5t-37.5 -22.5q-8 -1 -16.5 -1.5t-15.5 -0.5h-0.5h-0.5v0zM138 762v-180q0 -10 6 -16.5t14 -7.5q1 -1 2 -1h2h1.5h1.5q6 1 12.5 6.5t8.5 12.5q0 2 0.5 3.5t0.5 2.5v180q0 10 -7 17t-15 8h-1.5h-1.5h-2t-2 -1
q-8 -1 -14 -7.5t-6 -16.5v0z" />
    <glyph glyph-name="glyph9" unicode="&#x26;" horiz-adv-x="405" 
d="M377 73v-87h-74q-1 1 -2.5 1h-2.5q-25 0 -45 4.5t-29 30.5l-11.5 -9.5t-11.5 -7.5q-22 -12 -42.5 -15t-35.5 -3q-49 0 -63.5 28.5t-16.5 62.5q-1 9 -1 17.5v16.5v216q0 8 1 18.5t4 22.5q6 19 21 34.5t48 17.5v9q-33 0 -48.5 15t-20.5 32q-2 10 -3 19t-1 16v207q0 11 1 26
t6 31q7 30 29 54t69 24h68q80 0 93.5 -40.5t13.5 -89.5v-1v-1v-1.5v-1.5v-64h-119v99q0 7 -5.5 12.5t-11.5 7.5q-4 2 -7 2.5t-5 0.5h-3t-3 -1q-8 -2 -14.5 -8t-6.5 -14v-265q0 -9 7.5 -15t16.5 -7h1.5h1.5q11 0 20 6.5t9 15.5v67h119v-78h42v-88h-42v-272q0 -22 12.5 -34
t31.5 -12h4.5t5.5 1v0zM204 86v304q-4 0 -9 -1t-10 -3q-14 -4 -25.5 -15t-11.5 -30v-255q0 -7 6.5 -13.5t14.5 -8.5q1 -1 3 -1h3q2 0 5 0.5t7 2.5q6 2 11.5 7.5t5.5 12.5v0z" />
    <glyph glyph-name="glyph10" unicode="'" horiz-adv-x="232" 
d="M163 700l-28 -214h-38l-28 214h94v0z" />
    <glyph glyph-name="glyph11" unicode="(" horiz-adv-x="215" 
d="M187 74v-74h-3h-4q-8 0 -15.5 0.5t-15.5 1.5q-40 7 -73 33t-33 80l-1 605q0 50 38.5 85t102.5 35h0.5h1.5h1.5h0.5v-76q-16 -1 -28.5 -13t-12.5 -32v-604q0 -19 9 -27.5t20 -11.5q3 -1 6 -1.5t6 -0.5v0z" />
    <glyph glyph-name="glyph12" unicode=")" horiz-adv-x="217" 
d="M28 0v74q17 1 25.5 7.5t11.5 13.5q3 6 3.5 11.5t0.5 7.5v1v0v604q0 18 -11.5 31t-29.5 14v76l43 -9q9 -2 19.5 -5t21.5 -8q24 -11 43.5 -33.5t19.5 -64.5v-605q0 -48 -22 -70.5t-48 -31.5q-12 -4 -23.5 -6t-21.5 -3l-32 -4v0z" />
    <glyph glyph-name="glyph13" unicode="*" horiz-adv-x="380" 
d="M42 702l25 79l25 -10t57 -17q1 25 1.5 31.5t0.5 9.5v1v3v6v6q-1 3 -1 6v6v5v4q-1 0 -1 0.5v0.5v3.5v3.5h82v-4v-4q-1 -3 -1 -5v-4q-1 -6 -1 -12v-12v-3v-1q0 -3 0.5 -9.5t1.5 -31.5q38 9 58 17t24 10l25 -79q-10 -2 -18 -4t-14 -4q-3 -1 -5.5 -2t-4.5 -2q-8 -3 -17 -6
t-22 -8q5 -8 8.5 -14.5t7.5 -11.5l2 -2t1 -3l2.5 -2.5t2.5 -3.5l6 -8t6 -7q0 -1 0.5 -2t1.5 -2q3 -3 5.5 -6.5t6.5 -7.5l-66 -48q-10 17 -15 24.5t-9 12.5q-1 0 -1 0.5v0.5q-2 2 -3.5 4t-3.5 5l-1.5 1.5l-0.5 0.5l-0.5 0.5l-0.5 0.5q-3 3 -6 7l-10 13q-12 -16 -17 -21.5
t-7 -8.5l-0.5 -0.5l-0.5 -0.5q0 -1 -1 -2l-2 -2q0 -1 -0.5 -1.5l-0.5 -0.5l-1 -1l-1 -1q-2 -4 -6 -10.5l-13 -20.5l-67 48q6 6 12.5 14.5l13.5 17.5q2 4 5 8l6 8q3 6 7 11.5t7 10.5q-12 4 -21 7.5t-18 6.5q-5 2 -10 3.5t-11 2.5q-5 2 -10.5 3.5t-11.5 2.5v0z" />
    <glyph glyph-name="glyph14" unicode="+" horiz-adv-x="572" 
d="M328 463h202v-78h-202v-205h-77v205h-209v78h209v205h77v-205v0z" />
    <glyph glyph-name="glyph15" unicode="," horiz-adv-x="203" 
d="M47 0v114h114v-114q0 -11 -2.5 -25.5t-8.5 -29.5q-4 -13 -10.5 -25t-15.5 -23l-82 -1q4 5 9 10t10 13q10 13 18 33t9 48h-41v0z" />
    <glyph glyph-name="glyph16" unicode="-" horiz-adv-x="260" 
d="M42 339v77h176v-77h-176v0z" />
    <glyph glyph-name="glyph17" unicode="." horiz-adv-x="199" 
d="M42 0v114h115v-114h-115v0z" />
    <glyph glyph-name="glyph18" unicode="/" horiz-adv-x="277" 
d="M74 -73h-74l203 943h74l-203 -943v0z" />
    <glyph glyph-name="glyph19" unicode="0" horiz-adv-x="377" 
d="M42 113v605v0.5v1.5q0 10 1 26.5t6 35.5q8 27 29.5 49.5t69.5 22.5h81q47 0 69 -22t30 -49q5 -18 6 -35t1 -27v-1.5v-1.5v-605v-1.5v-1.5v-19t-2 -21q-3 -31 -23.5 -57t-80.5 -26l-81 -1q-3 1 -5.5 1h-4.5q-36 1 -66 21t-30 105v0zM161 748v-655q0 -11 7 -20t21 -9
q13 0 20 8t7 21v655q0 14 -8 21.5t-19 7.5t-19.5 -9t-8.5 -20v0z" />
    <glyph glyph-name="glyph20" unicode="1" horiz-adv-x="281" 
d="M211 840v-840h-119v665q-4 -3 -9 -6t-11 -6q-10 -5 -24 -9.5t-34 -7.5v93q47 4 75 36t29 75h93v0z" />
    <glyph glyph-name="glyph21" unicode="2" horiz-adv-x="350" 
d="M29 0v120q0 83 32 144t71 118q1 2 2.5 4t2.5 4q1 1 1.5 2t1.5 2q20 30 33 53.5t20 45.5q5 15 7 30.5t2 33.5v195q0 10 -6 16.5t-14 8.5h-2h-2q-2 0 -4.5 -0.5t-4.5 -0.5q-8 -3 -15 -9t-7 -15v-180h-119v152v8.5v9.5v4.5v4.5v10t1 10q2 31 23 57t88 26h74h2.5h3.5
q8 0 17.5 -0.5t19.5 -2.5q24 -6 44 -32t20 -95v-168v-7.5v-6.5v-10.5v-10.5q0 -17 -3.5 -35t-15.5 -44t-24.5 -48.5t-25.5 -42.5l-20 -30.5l-20 -29.5q-28 -42 -48 -90t-22 -123h180v-78h-293v0z" />
    <glyph glyph-name="glyph22" unicode="3" horiz-adv-x="361" 
d="M28 294h116v-205q0 -11 9 -18t21 -7t18.5 7t7.5 15v1.5v1.5v225q0 32 -10 57.5t-66 25.5h-1.5h-2.5v77h2h2h1h2q46 0 59.5 21.5t13.5 62.5v192q0 11 -6.5 17.5t-14.5 8.5q-1 1 -2.5 1h-3.5t-5 -0.5t-7 -2.5q-6 -2 -11.5 -8t-5.5 -16v-178h-116v151q0 9 1 25.5t6 34.5
q8 27 31 48.5t71 21.5h76q52 0 74 -23.5t28 -51.5q3 -14 3.5 -28t0.5 -25v-0.5v-0.5v-167q0 -9 -1 -25t-7 -33q-8 -25 -29 -45.5t-64 -22.5v-6q45 1 73 -26.5t28 -78.5v-204v-1.5v-1.5q0 -11 -0.5 -24.5t-3.5 -27.5q-6 -28 -27.5 -51t-74.5 -23l-76 -1q-57 1 -83 36.5
t-26 91.5v180v0z" />
    <glyph glyph-name="glyph23" unicode="4" horiz-adv-x="406" 
d="M228 0v215h-200v91l136 534h183v-546h45v-79h-45v-215h-119v0zM140 294h88v429l-88 -429v0z" />
    <glyph glyph-name="glyph24" unicode="5" horiz-adv-x="364" 
d="M28 294h119v-205q0 -10 6.5 -15.5t13.5 -7.5q3 -1 6 -1.5t5 -0.5q10 0 17 7t8 15v1.5v1.5v394v2.5t-1 3.5q-2 7 -8 13t-16 6q-13 0 -22 -7.5t-9 -17.5v-65h-119v422h268v-77h-149v-209q15 16 30 27t29 18q10 4 19.5 6.5t19.5 2.5q43 0 58 -27.5t18 -60.5q1 -9 1 -18.5
v-17.5v-371q0 -85 -27.5 -105t-60.5 -21h-8h-8h-0.5h-0.5l-77 -1q-9 1 -18.5 1.5t-19.5 3.5q-28 6 -51 32t-23 91v180v0z" />
    <glyph glyph-name="glyph25" unicode="6" horiz-adv-x="377" 
d="M335 574h-118v177v2v3q-2 8 -9.5 14.5t-19.5 6.5q-11 0 -17.5 -6t-8.5 -13q0 -2 -0.5 -3.5t-0.5 -3.5v-289q26 29 50 39t44 10q43 0 59 -23t19 -51q1 -10 1.5 -19.5t0.5 -17.5v-289q0 -76 -24.5 -98t-53.5 -25q-7 -1 -14 -1h-14h-0.5h-1.5l-78 -1q-7 1 -14 1.5t-14 1.5
q-30 4 -54.5 28t-24.5 94v609q0 11 1 25.5t4 29.5q7 30 29 54.5t73 24.5h78q56 0 78 -26t27 -57q2 -13 2.5 -26.5t0.5 -24.5v-0.5v-0.5v-145v0zM161 390v-300v-2v-3q2 -8 9.5 -14.5t19.5 -6.5q11 0 17.5 6t8.5 13q0 2 0.5 3.5t0.5 3.5v300q0 10 -6.5 16.5t-14.5 8.5
q-1 1 -2.5 1h-3.5t-5 -0.5t-7 -2.5q-6 -3 -11.5 -8.5t-5.5 -14.5v0z" />
    <glyph glyph-name="glyph26" unicode="7" horiz-adv-x="327" 
d="M38 0l142 763h-166v77h285v-84l-137 -756h-124v0z" />
    <glyph glyph-name="glyph27" unicode="8" horiz-adv-x="377" 
d="M231 -14h-88q-5 1 -10 1t-10 1q-30 2 -55.5 24t-25.5 101v208q0 8 1 19t4 22q6 20 24 38t58 21v10h-2h-3q-7 0 -14.5 1t-14.5 3q-20 6 -36.5 25.5t-16.5 62.5v196v2.5v2.5q0 11 0.5 26t4.5 31q7 27 29.5 50t74.5 23h76q51 0 73 -23t29 -51q5 -16 5.5 -31.5t0.5 -26.5
v-1.5v-1.5v-196q0 -44 -22 -68t-61 -24h-0.5h-1.5h-1.5h-0.5v-10q40 -3 58 -21t24 -38q3 -11 4 -22t1 -19v-208q0 -91 -32.5 -108.5t-71.5 -17.5v-1zM161 361v-270v-1.5v-1.5q1 -9 8 -16.5t20 -7.5t20 7.5t7 19.5v270q0 12 -7 19.5t-20 7.5t-20 -7.5t-8 -16.5v-1.5v-1.5v0z
M161 749v-257v-3t1 -3q1 -8 7.5 -14.5t18.5 -6.5q13 0 20 7.5t8 16.5v1.5v1.5v257q0 11 -7 18t-16 9q-1 1 -2.5 1h-3.5q-10 0 -18 -8.5t-8 -19.5v0z" />
    <glyph glyph-name="glyph28" unicode="9" horiz-adv-x="378" 
d="M43 290h119v-200q0 -2 0.5 -3.5t0.5 -3.5q2 -7 9 -13t19 -6q11 0 18.5 7t7.5 19v301q-35 -34 -60.5 -41t-41.5 -7q-43 0 -56.5 28t-15.5 61q-1 10 -1 19.5v18.5v2v2v245v2.5v2.5q0 11 0.5 24.5t2.5 27.5q6 29 28 53.5t77 24.5h80q41 0 73.5 -20t32.5 -116v-607
q0 -64 -21.5 -88.5t-46.5 -31.5q-10 -3 -20 -3.5t-19 -0.5l-78 -1q-9 1 -21.5 2t-25.5 5q-23 7 -42 33t-19 85v179v0zM161 750v-285q0 -10 6 -16t13 -9q3 -1 6 -1.5t5 -0.5t5 0.5t7 2.5q5 3 9.5 8.5t4.5 15.5v285q0 11 -6.5 18t-14.5 9h-3h-2q-2 0 -4 -0.5t-4 -0.5
q-8 -3 -15 -9.5t-7 -16.5v0z" />
    <glyph glyph-name="glyph29" unicode=":" horiz-adv-x="199" 
d="M42 0v114h115v-114h-115v0zM42 556v115h115v-115h-115v0z" />
    <glyph glyph-name="glyph30" unicode=";" horiz-adv-x="204" 
d="M47 0v114h115v-114q0 -6 -5 -36.5t-33 -66.5l-82 -1q19 17 31 41t16 63h-42v0zM47 556v115h115v-115h-115v0z" />
    <glyph glyph-name="glyph31" unicode="&#x3c;" horiz-adv-x="577" 
d="M149 420l386 -162v-80l-493 213v61l493 215v-81l-386 -166v0z" />
    <glyph glyph-name="glyph32" unicode="=" horiz-adv-x="578" 
d="M42 312v73h494v-73h-494v0zM42 464v73h494v-73h-494v0z" />
    <glyph glyph-name="glyph33" unicode="&#x3e;" horiz-adv-x="577" 
d="M429 420l-387 166v81l493 -215v-61l-493 -213v80l387 162v0z" />
    <glyph glyph-name="glyph34" unicode="?" horiz-adv-x="352" 
d="M108 0v114h114v-114h-114v0zM108 192v90q0 78 13 120t29 68l11 17t10 15q5 8 9 16t7 17q3 11 5 21.5t2 21.5v171q0 11 -7.5 18.5t-18.5 7.5q-10 0 -16.5 -6t-8.5 -13q0 -2 -0.5 -3.5t-0.5 -3.5v-173h-114v145q0 11 0.5 25.5t4.5 29.5q6 29 27 53.5t70 24.5h76
q65 0 83.5 -31t20.5 -68v-15v-14v-2.5v-3.5v-133q0 -34 -4 -53.5t-12 -35.5q-4 -9 -9 -18l-12 -21q-3 -6 -6.5 -12t-6.5 -13q-14 -28 -26 -66.5t-12 -84.5v-91h-114v0z" />
    <glyph glyph-name="glyph35" unicode="@" horiz-adv-x="684" 
d="M412 -185h-201q-120 1 -144.5 47t-24.5 108v652q0 96 27.5 158t136.5 62h262q14 0 33.5 -0.5t39.5 -5.5q38 -8 69.5 -36.5t31.5 -95.5v-493q0 -166 -42.5 -194t-103.5 -30h-2h-2h-6t-6 -1h-6h-6q-9 0 -18 1.5t-18 4.5q-15 5 -30.5 18t-31.5 40q-9 -16 -17.5 -26.5
t-17.5 -17.5q-15 -12 -30.5 -15.5t-32.5 -3.5q-4 0 -11.5 1.5t-15.5 6.5q-12 6 -22 24t-10 54v463q0 68 11 109.5t60 41.5q25 0 43 -15.5t29 -34.5q2 -3 3.5 -5.5t2.5 -5.5v48h103v-524q0 -37 5.5 -63.5t36.5 -26.5q21 0 29 17.5t9 38.5q1 6 1 11v10v507q0 88 -22 102
t-67 13h-8.5h-8.5h-233q-48 0 -58.5 -40t-10.5 -88v-1.5v-1.5v-625q0 -76 21.5 -89.5t85.5 -13.5l167 -1v-84v0zM314 533v-415v-0.5v-0.5v-6.5t1 -7.5q1 -7 5.5 -12.5t15.5 -5.5q18 0 22 16.5t4 38.5v423q0 14 -5 21.5t-10 10.5q-2 0 -3.5 0.5t-3.5 0.5q-16 0 -20.5 -13.5
t-5.5 -30.5v-8v-8v-1.5v-1.5v0z" />
    <glyph glyph-name="glyph36" unicode="A" horiz-adv-x="407" 
d="M28 0l88 840h179l84 -840h-117l-20 234h-81l-18 -234h-115v0zM166 312h70l-31 427h-6l-33 -427v0z" />
    <glyph glyph-name="glyph37" unicode="B" horiz-adv-x="384" 
d="M49 0v840h176q58 0 81 -22.5t29 -50.5q3 -12 3.5 -24.5t0.5 -22.5v-0.5v-1.5v-186q0 -45 -20.5 -65.5t-45.5 -27.5q-10 -2 -19.5 -3t-17.5 -1v-8q8 0 17 -1t18 -3q27 -6 49 -24.5t22 -56.5v-226q0 -57 -23 -81t-51 -30q-11 -3 -22.5 -4t-21.5 -1h-175v0zM168 78h13
q16 0 29 10t13 34v229q0 28 -12.5 39.5t-27.5 11.5h-15v-324v0zM168 476h12q23 0 33 9.5t10 28.5v207q0 20 -12.5 31t-29.5 11h-13v-287v0z" />
    <glyph glyph-name="glyph38" unicode="C" horiz-adv-x="371" 
d="M224 294h119v-183v-1.5v-1.5q0 -10 -0.5 -23.5t-3.5 -27.5q-6 -26 -28 -48t-75 -22l-81 -1q-5 1 -10.5 1t-11.5 1q-31 2 -57.5 23.5t-26.5 100.5v606v14t1 15q1 35 20 65t85 30h81q56 0 77.5 -22.5t26.5 -49.5q2 -12 2.5 -23.5t0.5 -21.5v-3.5v-2.5v-162h-119v193
q0 9 -6 15.5t-13 9.5q-2 1 -5 1.5t-5 0.5q-10 0 -18 -7.5t-9 -16.5v-1.5v-1.5v-660v-2v-3q2 -8 9 -14.5t18 -6.5t20 7.5t9 18.5v204v0z" />
    <glyph glyph-name="glyph39" unicode="D" horiz-adv-x="391" 
d="M49 0v840h186q9 0 19 -0.5t21 -3.5q25 -6 46 -29.5t21 -82.5v-605v-0.5v-0.5q0 -9 -1 -23.5t-6 -30.5q-8 -24 -30 -44t-71 -20h-185v0zM168 78h17q16 0 27 11.5t11 33.5v598q0 3 -0.5 7.5t-1.5 8.5q-3 10 -11 18t-26 8h-16v-685v0z" />
    <glyph glyph-name="glyph40" unicode="E" horiz-adv-x="337" 
d="M28 0v840h279v-77h-160v-287h160v-77h-160v-321h162v-78h-281v0z" />
    <glyph glyph-name="glyph41" unicode="F" horiz-adv-x="306" 
d="M49 0v840h243v-77h-124v-296h109v-77h-109v-390h-119v0z" />
    <glyph glyph-name="glyph42" unicode="G" horiz-adv-x="388" 
d="M199 407h147v-293q0 -95 -33 -111t-74 -16l-83 -1q-54 1 -75.5 24t-27.5 50q-3 14 -3.5 27t-0.5 24v1.5v1.5v605v0.5v0.5q0 11 0.5 24.5t2.5 27.5q6 31 27 56.5t76 25.5h72q70 0 91.5 -27t23.5 -59v-8.5v-9.5v-14.5v-14.5v-147h-119v181v2t-1 2q-1 8 -8 14t-18 6
t-19.5 -7t-8.5 -17v-664q0 -12 7 -19t15 -10q2 0 4 -0.5t4 -0.5q11 0 20 8.5t9 21.5v236h-28v80v0z" />
    <glyph glyph-name="glyph43" unicode="H" horiz-adv-x="390" 
d="M49 0v840h119v-361h54v361h119v-840h-119v401h-54v-401h-119v0z" />
    <glyph glyph-name="glyph44" unicode="I" horiz-adv-x="217" 
d="M49 0v840h119v-840h-119v0z" />
    <glyph glyph-name="glyph45" unicode="J" horiz-adv-x="225" 
d="M14 -14v80h14q18 0 23 8t6 17v5v4v1.5v1.5v737h119v-750q0 -78 -27 -90.5t-59 -12.5h-1.5h-1.5l-73 -1v0z" />
    <glyph glyph-name="glyph46" unicode="K" horiz-adv-x="386" 
d="M49 0v840h119v-361l60 361h118l-74 -397l86 -443h-115l-75 400v-400h-119v0z" />
    <glyph glyph-name="glyph47" unicode="L" horiz-adv-x="315" 
d="M49 0v840h119v-762h133v-78h-252v0z" />
    <glyph glyph-name="glyph48" unicode="M" horiz-adv-x="623" 
d="M49 0v840h175l86 -565l99 565h165v-840h-119v522l-77 -522h-127l-83 522v-522h-119v0z" />
    <glyph glyph-name="glyph49" unicode="N" horiz-adv-x="410" 
d="M49 0v840h119l74 -384v384h119v-840h-119l-74 345v-345h-119v0z" />
    <glyph glyph-name="glyph50" unicode="O" horiz-adv-x="377" 
d="M42 113v605v0.5v1.5q0 10 1 26.5t6 35.5q8 27 29.5 49.5t69.5 22.5h81q47 0 69 -22t30 -49q5 -18 6 -35t1 -27v-1.5v-1.5v-605v-1.5v-1.5v-19t-2 -21q-3 -31 -23.5 -57t-80.5 -26l-81 -1q-3 1 -5.5 1h-4.5q-36 1 -66 21t-30 105v0zM161 748v-655v-1.5v-1.5q1 -10 8 -18
t20 -8q12 0 19.5 7.5t7.5 21.5v655q0 12 -6.5 19t-14.5 9q-1 1 -2.5 1h-3.5q-11 0 -19 -8t-9 -18v-1.5v-1.5v0z" />
    <glyph glyph-name="glyph51" unicode="P" horiz-adv-x="370" 
d="M49 0v840h185q8 0 17.5 -0.5t19.5 -1.5q27 -5 49 -29.5t22 -91.5v-289q0 -83 -29 -104.5t-64 -23.5h-7.5h-7.5h-66v-300h-119v0zM168 377h14q16 0 28.5 8.5t12.5 32.5v302q0 20 -8 30.5t-31 11.5l-16 1v-386v0z" />
    <glyph glyph-name="glyph52" unicode="Q" horiz-adv-x="391" 
d="M151 -83l4 69q-2 1 -3.5 1t-3.5 -1h-2.5h-3.5q-43 0 -62 21.5t-26 47.5q-4 16 -4.5 31t-0.5 25v1v1v605v1.5v1.5q0 10 1 27t6 35q8 27 30 49t69 22h81q48 0 69.5 -22.5t29.5 -49.5q5 -19 6 -35.5t1 -26.5v-1.5v-0.5v-605q0 -10 -0.5 -25t-4.5 -30q-5 -27 -24.5 -49
t-64.5 -22h-6h-6l4 -70h-89v0zM168 748v-655q0 -14 7.5 -21.5t16.5 -8.5h1.5h1.5q11 0 19.5 9t8.5 21v655v1.5v1.5q-1 10 -9 18t-19 8h-3t-3 -1q-8 -2 -14.5 -9t-6.5 -19v0z" />
    <glyph glyph-name="glyph53" unicode="R" horiz-adv-x="387" 
d="M49 0v840h187q62 0 82 -26t23 -57q1 -8 1 -16.5v-16.5v-2v-2v-278v-16t-1 -17q-2 -24 -13 -46.5t-41 -35.5l79 -327h-127l-63 310h-8v-310h-119v0zM168 386h17q17 0 27.5 14t10.5 39v281q0 24 -9.5 33t-21.5 10h-2.5h-2.5h-19v-377v0z" />
    <glyph glyph-name="glyph54" unicode="S" horiz-adv-x="378" 
d="M42 291h119v-204q0 -10 7.5 -16t16.5 -7h1.5h1.5q11 0 19.5 5.5t8.5 17.5v188q0 20 -7 29.5t-16 18.5h-0.5t-0.5 1l-4.5 4.5l-4.5 4.5l-96 107q-15 17 -23.5 28t-12.5 20q-5 11 -5.5 23t-0.5 31v181v8.5v8.5q-1 5 -1 9.5v9.5v4v4q1 33 20 60t85 27h72q67 0 89 -26.5
t25 -58.5q1 -9 1 -18.5v-17.5v-5.5v-4.5v-147h-119v178q0 7 -5 12t-11 8q-3 2 -6 2.5t-5 0.5t-5 -0.5t-6 -1.5q-6 -2 -11.5 -7.5t-5.5 -13.5v-172v-2.5v-3.5q0 -9 0.5 -16.5t2.5 -15.5q2 -7 7 -15.5t14 -18.5l104 -113l1.5 -1.5l1.5 -1.5q4 -4 8.5 -8t8.5 -8q11 -9 18 -21
t7 -36v-206q0 -97 -22 -112.5t-89 -15.5h-2.5h-3.5l-70 -1q-1 1 -2.5 1h-3.5q-37 0 -68.5 20t-31.5 108v176v0z" />
    <glyph glyph-name="glyph55" unicode="T" horiz-adv-x="327" 
d="M104 0v763h-90v77h299v-77h-90v-763h-119v0z" />
    <glyph glyph-name="glyph56" unicode="U" horiz-adv-x="392" 
d="M49 840h119v-750q0 -10 7.5 -17t15.5 -9h3h2q11 0 19.5 7.5t8.5 18.5v750h119v-725q0 -78 -26 -101t-58 -26q-6 -1 -11.5 -1h-11.5l-80 -1q-61 1 -81.5 27.5t-24.5 58.5q-1 10 -1 20v19v1.5v1.5v726v0z" />
    <glyph glyph-name="glyph57" unicode="V" horiz-adv-x="391" 
d="M115 0l-94 840h120l58 -625l47 625h124l-91 -840h-164v0z" />
    <glyph glyph-name="W" unicode="W" horiz-adv-x="628" 
d="M314 603l-44 -603h-174l-75 840h126l33 -613l44 613h179l44 -613l33 613h127l-76 -840h-174l-43 603v0z" />
    <glyph glyph-name="glyph59" unicode="X" horiz-adv-x="390" 
d="M21 0l78 429l-78 411h124l43 -285l38 285h125l-73 -411l91 -429h-126l-55 291l-43 -291h-124v0z" />
    <glyph glyph-name="glyph60" unicode="Y" horiz-adv-x="384" 
d="M132 0v221l-111 619h133l38 -352l38 352h133l-111 -619l-1 -221h-119v0z" />
    <glyph glyph-name="glyph61" unicode="Z" horiz-adv-x="308" 
d="M14 0v92l136 671h-120v77h246v-92l-143 -670h147v-78h-266v0z" />
    <glyph glyph-name="glyph62" unicode="[" horiz-adv-x="249" 
d="M42 0v840h179v-77h-71v-685h71v-78h-179v0z" />
    <glyph glyph-name="glyph63" unicode="\" horiz-adv-x="277" 
d="M203 -73l-203 943h74l203 -943h-74v0z" />
    <glyph glyph-name="glyph64" unicode="]" horiz-adv-x="251" 
d="M28 0v78h72v685h-72v77h181v-840h-181v0z" />
    <glyph glyph-name="glyph65" unicode="^" horiz-adv-x="443" 
d="M223 774l-181 -77v78l139 65h79l141 -65v-78l-178 77v0z" />
    <glyph glyph-name="glyph66" unicode="_" horiz-adv-x="527" 
d="M0 -141h527v-73h-527v73v0z" />
    <glyph glyph-name="glyph67" unicode="`" horiz-adv-x="203" 
d="M108 854l60 -154h-65l-124 154h129v0z" />
    <glyph glyph-name="glyph68" unicode="a" horiz-adv-x="332" 
d="M42 468v130q0 41 17.5 59t38.5 24q10 3 20.5 4t18.5 1h67q35 0 60.5 -23t25.5 -64v-599h-100v33q-27 -31 -48 -38.5t-38 -7.5q-34 0 -46 19.5t-15 43.5q-1 10 -1 19v17v196q0 26 14.5 45.5t31.5 32.5q11 9 22 14.5l17 8.5l4 2l4 2q20 10 37.5 26t17.5 47v132q0 9 -5.5 14
t-11.5 7q-2 0 -3.5 0.5t-3.5 0.5t-3.5 -0.5t-3.5 -0.5q-6 -2 -11.5 -7t-5.5 -14v-124h-100v0zM190 358q-20 -10 -30 -19t-14 -17q-3 -7 -3.5 -14t-0.5 -16v-2.5v-3.5v-190q0 -10 5 -16t10 -9q2 0 3.5 -0.5t3.5 -0.5t3.5 0.5t3.5 0.5q7 2 13 8.5t6 16.5v262v0z" />
    <glyph glyph-name="glyph69" unicode="b" horiz-adv-x="332" 
d="M42 0v839h100v-194q23 25 42.5 33t33.5 8q41 0 54.5 -22t16.5 -49q1 -9 1 -17.5v-16.5v-488q0 -9 -0.5 -20.5t-3.5 -22.5q-5 -24 -20 -43.5t-50 -19.5q-18 0 -33 7.5t-25 17.5q-5 4 -9 8.5t-7 7.5v-28h-100v0zM142 592v-512q0 -9 5.5 -14t11.5 -7q2 0 3.5 -0.5t3.5 -0.5
t3.5 0.5t3.5 0.5q6 2 11.5 7t5.5 14v512q0 9 -5.5 14t-11.5 7q-2 0 -3.5 0.5t-3.5 0.5t-3.5 -0.5t-3.5 -0.5q-6 -2 -11.5 -7t-5.5 -14v0z" />
    <glyph glyph-name="glyph70" unicode="c" horiz-adv-x="318" 
d="M190 238h100v-148q0 -71 -25 -86.5t-56 -16.5h-6h-6l-64 -1q-5 1 -9.5 1h-9.5q-27 2 -49.5 19.5t-22.5 82.5v489q0 70 23.5 88t52.5 20h7h7h65h11t11 -1q27 -2 49 -20.5t22 -83.5v-135h-100v146q0 10 -7 15.5t-15 6.5h-1.5h-1.5q-9 0 -16 -6t-7 -16v-512q0 -9 5 -14.5
t10 -7.5q2 0 4 -0.5t4 -0.5h1.5h1.5q8 1 15 6.5t7 16.5v158v0z" />
    <glyph glyph-name="glyph71" unicode="d" horiz-adv-x="332" 
d="M290 839v-839h-100v28q-9 -13 -21 -21.5t-25 -13.5q-7 -3 -14 -4.5t-13 -1.5q-34 0 -49.5 18t-20.5 41q-4 13 -4.5 25.5t-0.5 21.5v490v15.5t1 16.5q3 27 17 49t54 22q26 0 44.5 -12.5t31.5 -27.5v193h100v0zM142 592v-512q0 -8 8 -15t18 -7q9 0 15.5 6.5t6.5 15.5v512
q0 9 -6 15.5t-17 6.5t-18 -6.5t-7 -15.5v0z" />
    <glyph glyph-name="glyph72" unicode="e" horiz-adv-x="318" 
d="M190 238h100v-153q0 -49 -18.5 -69t-40.5 -25q-9 -3 -18.5 -3.5t-17.5 -0.5l-62 -1q-7 1 -15 1.5t-17 2.5q-22 5 -40.5 24.5t-18.5 69.5v502q0 50 24 75t67 25h62q47 0 71 -28.5t24 -69.5v-284h-148v-226q0 -2 0.5 -4t0.5 -4q2 -4 6.5 -8t13.5 -4q13 0 20 6.5t7 13.5v160
v0zM142 368h48v225v2.5t-1 3.5q-2 5 -8 10t-18 5q-8 0 -12.5 -3.5t-6.5 -7.5q-1 -3 -1.5 -6t-0.5 -4v-225v0z" />
    <glyph glyph-name="glyph73" unicode="f" horiz-adv-x="270" 
d="M84 0v593h-70v79h70v60q0 9 1 20t4 22q8 24 33 43.5t84 19.5h50v-71h-13q-30 0 -42 -11.5t-15 -25.5q-1 -6 -1.5 -12t-0.5 -11v-34h72v-79h-72v-593h-100v0z" />
    <glyph glyph-name="glyph74" unicode="g" horiz-adv-x="332" 
d="M290 672v-750v-1v-2q0 -11 -0.5 -25.5t-3.5 -30.5q-6 -27 -25.5 -50t-64.5 -23l-59 -1q-3 1 -6 1h-6q-30 3 -54.5 24.5t-23.5 88.5v7.5v7.5l95 -1v-47q0 -8 8 -14t18 -6q8 0 15 5.5t7 15.5v166q-10 -12 -23.5 -22t-26.5 -15q-6 -2 -12 -3t-12 -1t-12.5 0.5t-13.5 3.5
q-18 4 -33 25.5t-15 73.5v483v15t1 16q3 28 17 50.5t54 22.5q12 0 31 -7t39 -29q1 -2 2.5 -3.5l3.5 -3.5v29h100v0zM142 592v-503q0 -11 7 -16.5t15 -6.5h1.5h1.5q2 0 4 0.5t4 0.5q5 2 10 7.5t5 14.5v503q0 10 -7 16t-16 6h-1.5h-1.5q-8 -1 -15 -6.5t-7 -15.5v0z" />
    <glyph glyph-name="glyph75" unicode="h" horiz-adv-x="332" 
d="M42 0v839h100v-193q26 25 48 32.5t41 7.5q30 0 42 -17.5t15 -38.5q2 -10 2 -19.5v-17.5v-593h-100v579q0 9 -5.5 15t-11.5 8q-2 1 -3.5 1h-2.5q-2 0 -4 -0.5t-4 -1.5q-6 -2 -11.5 -8t-5.5 -14v-579h-100v0z" />
    <glyph glyph-name="glyph76" unicode="i" horiz-adv-x="183" 
d="M42 0v672h99v-672h-99v0zM42 733v101h99v-101h-99v0z" />
    <glyph glyph-name="glyph77" unicode="j" horiz-adv-x="184" 
d="M42 -210v882h100v-882h-100v0zM42 733v100h100v-100h-100v0z" />
    <glyph glyph-name="glyph78" unicode="k" horiz-adv-x="345" 
d="M42 0v838h100v-461h4l55 295h106l-71 -325l88 -347h-103l-75 321h-4v-321h-100v0z" />
    <glyph glyph-name="glyph79" unicode="l" horiz-adv-x="184" 
d="M42 0v839h100v-839h-100v0z" />
    <glyph glyph-name="glyph80" unicode="m" horiz-adv-x="481" 
d="M42 0v672h100v-33q10 13 22.5 23t25.5 16q9 5 18 7t17 2q23 0 37.5 -12.5t25.5 -34.5q26 29 48 37.5t41 8.5q33 0 45.5 -19.5t15.5 -42.5q1 -10 1 -19.5v-17.5v-4v-4v-579h-100v580q0 2 -0.5 3.5t-0.5 3.5q-3 5 -8.5 10t-15.5 5q-9 0 -14 -4t-8 -9q-1 -2 -1.5 -4.5
t-0.5 -4.5l1 -580h-101l1 582q0 8 -6.5 14.5t-14.5 6.5q-2 0 -4.5 -0.5t-4.5 -0.5q-7 -2 -13 -7t-6 -13v-582h-100v0z" />
    <glyph glyph-name="glyph81" unicode="n" horiz-adv-x="332" 
d="M42 0v672h100v-28q3 3 7 6.5t8 6.5q14 11 33.5 20t41.5 9q30 0 42 -17.5t14 -38.5q2 -10 2 -18.5v-16.5v-1.5v-1.5v-592h-100v580q0 8 -5 13.5t-10 8.5q-2 0 -3.5 0.5t-3.5 0.5q-9 0 -16.5 -6.5t-9.5 -13.5v-1.5v-1.5v-580h-100v0z" />
    <glyph glyph-name="glyph82" unicode="o" horiz-adv-x="332" 
d="M42 89v487q0 9 1 22t5 28q6 22 25.5 41t61.5 19h62q41 0 60 -19t26 -41q5 -15 6 -28t1 -22v-487q0 -57 -20.5 -76.5t-45.5 -23.5q-7 -1 -14 -1.5t-14 -0.5l-61 -1q-6 1 -12 1t-13 1q-25 3 -46.5 22.5t-21.5 78.5v0zM142 591v-510q0 -9 5.5 -14.5t11.5 -7.5q2 0 3.5 -0.5
t3.5 -0.5t3.5 0.5t3.5 0.5q6 2 11.5 7.5t5.5 14.5v510q0 9 -5.5 14.5t-11.5 7.5q-2 0 -3.5 0.5t-3.5 0.5t-3.5 -0.5t-3.5 -0.5q-6 -2 -11.5 -7.5t-5.5 -14.5v0z" />
    <glyph glyph-name="glyph83" unicode="p" horiz-adv-x="332" 
d="M42 -214v886h100v-27q7 11 16.5 18.5t19.5 12.5q11 5 21 7.5t17 2.5q29 0 51.5 -20.5t22.5 -86.5v-488v-16t-1 -16q-3 -28 -17.5 -50t-55.5 -22q-21 0 -36.5 8.5t-26.5 19.5q-3 3 -6 6.5t-5 6.5v-242h-100v0zM142 592v-512q0 -9 6.5 -15.5t15.5 -6.5q10 0 18 7t8 15v512
q0 10 -7.5 16.5t-18.5 6.5q-9 0 -15.5 -6t-6.5 -17v0z" />
    <glyph glyph-name="glyph84" unicode="q" horiz-adv-x="332" 
d="M290 672v-849h-100v205q-12 -16 -30.5 -28.5t-44.5 -12.5q-41 0 -55 22t-17 50q-1 8 -1 16v16v488q0 9 0.5 20t2.5 22q5 25 20 45t50 20q6 0 12.5 -1t13.5 -4q13 -5 26 -14t23 -22v27h100v0zM190 80v512q0 9 -6 15.5t-17 6.5h-1.5h-1.5q-8 -1 -15 -7.5t-7 -14.5v-512
q0 -8 7 -14.5t15 -7.5h1.5h1.5q11 0 17 6.5t6 15.5v0z" />
    <glyph glyph-name="glyph85" unicode="r" horiz-adv-x="311" 
d="M42 672h100v-28q25 23 47 32.5t43 9.5q30 0 41.5 -17t14.5 -38q2 -9 2 -18v-17v-2v-2v-148h-100v135q0 9 -5.5 15t-11.5 8q-2 1 -3.5 1h-2.5h-2.5t-3.5 -1q-7 -2 -13 -8t-6 -15v-579h-100v672v0z" />
    <glyph glyph-name="glyph86" unicode="s" horiz-adv-x="318" 
d="M35 233h100v-150q0 -11 6.5 -18t16.5 -7q11 0 16.5 6t7.5 13q1 2 1 3.5v2.5v135q0 16 -3 26.5t-9 20.5l-6.5 8.5t-8.5 9.5l-90 94q-10 11 -16.5 20t-9.5 17q-4 11 -4.5 22.5t-0.5 26.5v2.5v3.5v122q0 56 20.5 73.5t45.5 20.5q7 1 13.5 1h12.5h67q45 0 63 -17.5t23 -37.5
q2 -10 2.5 -19.5t0.5 -17.5v-1.5v-0.5v-139h-100v137q0 11 -7 17.5t-16 6.5h-1.5h-1.5q-8 -1 -15 -7t-7 -17v-112q0 -21 10.5 -36.5t23.5 -29.5l69 -71q14 -14 22.5 -25.5t13.5 -21.5q7 -14 8 -29t1 -39v-138q0 -8 -0.5 -16t-1.5 -17q-4 -26 -22 -47t-66 -21l-69 -1
q-44 1 -62 18t-24 38q-2 11 -2.5 22t-0.5 19v2.5v2.5v145v0z" />
    <glyph glyph-name="glyph87" unicode="t" horiz-adv-x="255" 
d="M14 600v72h54v166h100v-166h73v-72h-73v-495q0 -20 7.5 -29.5t16.5 -12.5q3 -1 6.5 -1.5t6.5 -0.5h36v-75h-65q0 1 -0.5 1h-0.5q-9 0 -21 0.5t-25 4.5q-23 6 -42 26.5t-19 69.5v512h-54v0z" />
    <glyph glyph-name="glyph88" unicode="u" horiz-adv-x="332" 
d="M290 672v-672h-100v28q-24 -25 -46.5 -33t-43.5 -8q-33 0 -44 19.5t-13 43.5q-1 8 -1 15.5v14.5v592h100v-579q0 -9 5 -14.5t10 -7.5q2 -1 4 -1.5t4 -0.5h2.5t3.5 1q7 2 13 8t6 15v579h100v0z" />
    <glyph glyph-name="glyph89" unicode="v" horiz-adv-x="321" 
d="M93 -2l-72 674h108l32 -473l28 473h111l-83 -674h-124v0z" />
    <glyph glyph-name="glyph90" unicode="w" horiz-adv-x="552" 
d="M104 0l-83 672h106l37 -468h1l55 468h104l61 -468h1l36 468h109l-93 -672h-112l-52 400l-58 -400h-112v0z" />
    <glyph glyph-name="glyph91" unicode="x" horiz-adv-x="335" 
d="M21 0l54 353l-54 319h106l34 -286l33 286h103l-48 -319l65 -353h-107l-46 298l-36 -298h-104v0z" />
    <glyph glyph-name="glyph92" unicode="y" horiz-adv-x="332" 
d="M290 672v-745q0 -10 -0.5 -22.5t-1.5 -25.5q-4 -35 -23 -64t-70 -29l-51 -1q-7 1 -14 1.5t-14 2.5q-25 5 -46.5 28t-20.5 83v4v4v4v4l93 -1v-49q0 -7 6.5 -12.5t14.5 -6.5q1 -1 3 -1h3q8 0 14.5 6.5t6.5 14.5v153q-18 -18 -38 -25.5t-44 -7.5q-34 0 -47.5 19.5
t-16.5 43.5q-1 7 -1.5 14t-0.5 13v595h100v-590q0 -11 4 -16t9 -6q3 -2 6 -2h5h5t6 2q5 1 9 6t4 16v590h100v0z" />
    <glyph glyph-name="glyph93" unicode="z" horiz-adv-x="268" 
d="M28 0v79l107 521h-105v72h208v-75l-107 -525h123v-72h-226v0z" />
    <glyph glyph-name="glyph94" unicode="{" horiz-adv-x="269" 
d="M185 693v-167v-2.5v-2.5v-17t-1 -18q-3 -21 -13 -40t-36 -26q26 -7 36 -25.5t13 -39.5q1 -10 1 -19v-16v-3.5v-2.5v-167q0 -36 6 -60.5t36 -24.5v-60q-4 0 -8.5 -0.5t-9.5 -1.5h-4.5h-4.5q-5 0 -11 0.5t-11 1.5q-36 5 -66 34.5t-30 96.5v184q0 32 -5.5 52t-34.5 20v62
q29 0 34.5 20t5.5 52v184q0 68 30.5 97t67.5 35q6 0 11 0.5t10 0.5q7 0 13.5 -0.5t12.5 -1.5v-60q-30 0 -36 -24.5t-6 -60.5v0z" />
    <glyph glyph-name="glyph95" unicode="|" horiz-adv-x="162" 
d="M42 -214v1200h78v-1200h-78v0z" />
    <glyph glyph-name="glyph96" unicode="}" horiz-adv-x="269" 
d="M84 147v167v2.5v2.5v19t2 20q3 20 13 38t35 24q-25 6 -35 23.5t-13 38.5q-2 10 -2 20v19v2.5v2.5v167q0 37 -6 60.5t-36 24.5v60q4 1 8 1t8 1h4h4q7 0 14.5 -0.5t15.5 -2.5q34 -7 62.5 -36t28.5 -94v-184q0 -32 5.5 -52t34.5 -20v-62q-29 0 -34.5 -20t-5.5 -52v-184
q0 -63 -28 -92.5t-61 -36.5q-8 -2 -16 -3t-16 -1q-7 0 -13 0.5t-11 1.5v60q30 2 36 25t6 60v0z" />
    <glyph glyph-name="glyph97" unicode="~" horiz-adv-x="451" 
d="M42 356v80q7 4 16.5 8.5l20.5 9.5l27.5 10.5t28.5 8.5q11 3 22 4.5t21 1.5q13 0 25.5 -3t24.5 -8q29 -10 48 -18.5t36 -11.5q3 0 6.5 -0.5t7.5 -0.5q8 0 17 2t18 5l13.5 4t12.5 5q6 2 12 5l10 5v-83q-1 -1 -2 -1.5t-2 -1.5q-7 -3 -14.5 -7t-14.5 -7q-9 -4 -17 -6t-16 -2
q-22 0 -42 3.5t-36 8.5q-9 2 -16 4.5t-11 4.5q-32 14 -48.5 17.5t-24.5 3.5q-6 0 -13 -1l-14 -2q-10 -3 -20.5 -7l-20.5 -8q-2 -1 -5 -2t-5 -2l-7 -3.5t-6 -2.5h-0.5t-0.5 -1q-6 -2 -12.5 -4.5t-18.5 -7.5v0z" />
    <glyph glyph-name="uni007F" 
 />
    <glyph glyph-name="F" 
 />
    <glyph glyph-name="uni0081" horiz-adv-x="269" 
d="M14 0v840h241v-77h-122v-763h-119v0z" />
    <glyph glyph-name="D" horiz-adv-x="386" 
d="M49 0v840h119v-361l60 361h118l-74 -397l86 -443h-115l-75 400v-400h-119v0z" />
    <glyph glyph-name="N" 
 />
    <glyph glyph-name="bullet" 
 />
    <glyph glyph-name="guilsinglleft" 
 />
    <glyph glyph-name="Ydieresis" horiz-adv-x="340" 
d="M42 0v672h100v-300l53 300h102l-68 -325l90 -347h-105l-72 308v-308h-100v0z" />
    <glyph glyph-name="tilde" 
 />
    <glyph glyph-name="uni00A0" unicode="&#xa0;" 
 />
    <glyph glyph-name="Z" unicode="&#xa1;" horiz-adv-x="397" 
d="M43 -14v80h28q35 0 49.5 12t18.5 27q2 5 2.5 10t1.5 9l8 65l-130 651h128l60 -435l48 435h119l-117 -726q-15 -93 -51 -110t-95 -17l-70 -1v0zM64 986h101v-20q0 -14 9 -23.5t24 -9.5q14 0 22 8.5t10 17.5q1 2 1 3.5v3.5v20h102v-15q0 -43 -17.5 -62t-38.5 -25
q-10 -3 -19 -3.5t-17 -0.5h-87q-46 0 -64.5 18t-22.5 40q-2 9 -2.5 17.5t-0.5 15.5v15v0z" />
    <glyph glyph-name="cent" unicode="&#xa2;" horiz-adv-x="332" 
d="M290 672v-745q0 -10 -0.5 -22.5t-1.5 -25.5q-4 -35 -23 -64t-70 -29l-51 -1q-7 1 -14 1.5t-14 2.5q-25 5 -46.5 28t-20.5 83v4v4v4v4l93 -1v-49q0 -7 6.5 -12.5t14.5 -6.5q1 -1 3 -1h3q8 0 14.5 6.5t6.5 14.5v153q-18 -18 -38 -25.5t-44 -7.5q-34 0 -47.5 19.5
t-16.5 43.5q-1 7 -1.5 14t-0.5 13v595h100v-590q0 -11 4 -16t9 -6q3 -2 6 -2h5h5t6 2q5 1 9 6t4 16v590h100v0zM50 842h86v-61q0 -12 8.5 -21t21.5 -9t21.5 9t8.5 21v61h86v-62q0 -6 -0.5 -12t-2.5 -13q-4 -16 -19 -30t-52 -16q-5 0 -10.5 -0.5t-10.5 -0.5h-11.5h-10.5h-10
h-10q-6 0 -11 0.5t-10 0.5q-40 3 -54.5 18t-17.5 32q-1 6 -1.5 11t-0.5 10v62v0z" />
    <glyph glyph-name="endash" unicode="&#xa3;" horiz-adv-x="225" 
d="M14 -14v80h14q18 0 23 8t6 17v5v4v1.5v1.5v737h119v-750q0 -78 -27 -90.5t-59 -12.5h-1.5h-1.5l-73 -1v0z" />
    <glyph glyph-name="currency" unicode="&#xa4;" horiz-adv-x="875" 
d="M70 56l118 118l-11 17t-14 26q-12 24 -21.5 57.5t-9.5 75.5t9.5 75.5t21.5 57.5q7 15 14 26l11 17l-118 118l70 70l117 -118q11 9 22.5 16t22.5 13q37 19 72.5 25t62.5 6t62.5 -6t72.5 -25q11 -6 22.5 -13t22.5 -16l118 118l70 -70l-118 -118q5 -6 11.5 -16.5t13.5 -24.5
q11 -24 21 -58t10 -77t-10 -77t-21 -58q-7 -14 -13.5 -24.5t-11.5 -16.5l118 -118l-70 -70l-118 118q-11 -9 -22.5 -16t-22.5 -13q-37 -19 -72.5 -25t-62.5 -6t-62.5 6t-72.5 25q-11 6 -22.5 13t-22.5 16l-117 -118l-70 70v0zM211 350q0 -101 69 -163t151 -64h3.5h2.5
q95 0 161 68t66 159t-66 159t-161 68q-92 0 -159 -66t-67 -161v0z" />
    <glyph glyph-name="emdash" unicode="&#xa5;" 
 />
    <glyph glyph-name="circumflex" unicode="&#xa6;" horiz-adv-x="199" 
d="M42 0v114h115v-114h-115v0zM42 556v115h115v-115h-115v0z" />
    <glyph glyph-name="scaron" unicode="&#xa7;" horiz-adv-x="359" 
d="M312 662h-111v70v0.5v0.5v8t-1 8q-1 9 -6.5 16t-18.5 7q-12 0 -17 -9t-6 -20v-6.5v-6.5v-61q0 -8 1 -17t5 -19q5 -10 14.5 -20t27.5 -18q6 -3 13 -5l14 -4l6 -2l6 -2q29 -9 53.5 -30t24.5 -84v-175q0 -5 -0.5 -14.5t-4.5 -19.5q-4 -12 -12.5 -22t-25.5 -14l-20 -1
q36 -15 49.5 -43t13.5 -64v-97q0 -10 -1 -23.5t-4 -28.5q-7 -24 -25.5 -45t-58.5 -21l-68 -1q0 1 -0.5 1h-1.5q-44 0 -78 11.5t-34 81.5v89l79 10l33 -65q1 -1 1.5 -2.5t0.5 -2.5v-2.5v-2.5v-4v-3q-1 -2 -1 -4v-4v-0.5v-1.5q1 -7 7.5 -12t15.5 -5q2 0 5 0.5t7 3.5
q5 3 9 10.5t4 23.5v60v3.5v3.5q0 23 -9 42t-65 36l-12.5 4t-12.5 5q-25 10 -45 33.5t-20 71.5l-1 162v2.5v3.5v7.5v6.5q1 21 8 39.5t33 27.5l21 3q-30 11 -42.5 29t-16.5 38q-2 11 -2.5 21.5t-0.5 20.5v1.5v1.5v109q0 42 16 63t35 29q15 6 28 7.5t19 1.5h83h1.5h1.5
q32 0 59 -13.5t27 -84.5v-94v0zM147 500v-210q0 -19 15 -26t33 -9q4 0 8 -0.5t8 -0.5q1 18 2.5 35t3.5 33q2 25 4 47.5t2 41.5q0 41 -15 65.5t-61 23.5v0z" />
    <glyph glyph-name="H" unicode="&#xa8;" horiz-adv-x="337" 
d="M28 0v840h278v-77h-159v-287h159v-77h-159v-321h162v-78h-281v0zM30 881v105h110v-105h-110v0zM194 881v105h110v-105h-110v0z" />
    <glyph glyph-name="I" unicode="&#xa9;" horiz-adv-x="678" 
d="M475 842q101 0 131 -33.5t30 -151.5v-642q0 -122 -31 -153t-91 -31l-350 -1q-58 1 -90 32t-32 153v642q0 127 32 156t129 29h272v0zM225 -97h228q67 1 78 29.5t11 85.5v636q0 58 -11 86.5t-78 28.5h-228q-66 0 -77 -28.5t-11 -78.5v-4v-4v-644q0 -52 11 -79t77 -27v-1z
M364 245h98v-149v-1.5v-0.5q0 -8 -0.5 -19t-3.5 -23q-5 -22 -22.5 -39.5t-59.5 -17.5l-68 -1q-3 1 -6 1h-6q-28 1 -51.5 18t-23.5 83v495v10v10q1 30 16 55.5t71 25.5h68q46 0 63 -18.5t21 -41.5q2 -9 2 -18v-17v-2.5v-2.5v-132h-98v153q0 9 -5.5 15.5t-16.5 6.5t-16.5 -6.5
t-5.5 -15.5v-543q0 -9 6.5 -15.5t15.5 -6.5t15.5 6.5t6.5 15.5v175v0z" />
    <glyph glyph-name="J" unicode="&#xaa;" horiz-adv-x="385" 
d="M334 563h-117v188q0 9 -5.5 14.5t-11.5 8.5q-4 2 -7 2.5t-5 0.5h-3t-3 -1q-8 -2 -14.5 -8.5t-6.5 -16.5v-274h98v-78h-98v-311q0 -2 0.5 -3.5t0.5 -3.5q2 -6 8.5 -11.5t17.5 -5.5t20 7t9 17v206h119v-179q0 -69 -23 -94t-51 -31q-10 -2 -19.5 -2.5t-18.5 -0.5l-76 -1
q-50 1 -72 23.5t-29 49.5q-4 16 -4.5 31t-0.5 26v604q0 75 24.5 101t54.5 31q7 1 14 1.5t14 0.5h75q54 0 76.5 -23.5t29.5 -52.5q3 -15 3.5 -29t0.5 -25v-0.5v-1.5v-159v0z" />
    <glyph glyph-name="ampersand" unicode="&#xab;" horiz-adv-x="375" 
d="M94 93l-52 237l52 262h96l-53 -252l53 -247h-96v0zM237 93l-52 237l52 262h96l-53 -252l53 -247h-96v0z" />
    <glyph glyph-name="quotesingle" unicode="&#xac;" horiz-adv-x="490" 
d="M48 359v82h394v-232h-82v150h-312v0z" />
    <glyph glyph-name="daggerdbl" unicode="&#xad;" horiz-adv-x="260" 
d="M42 339v77h176v-77h-176v0z" />
    <glyph glyph-name="dagger" unicode="&#xae;" horiz-adv-x="505" 
d="M463 727v-394q0 -78 -22.5 -95.5t-92.5 -17.5h-191q-72 0 -93.5 20.5t-21.5 92.5v394q0 78 23 95.5t92 17.5h191q74 0 94.5 -20t20.5 -93v0zM177 276h151q39 0 51 15t12 33v3v4v11.5v9.5v344v15v14q0 25 -10 41.5t-53 16.5h-151q-47 0 -55 -16.5t-8 -62.5v-4v-4v-345
q0 -35 8 -55t55 -20v0zM165 331v387h109q38 0 49.5 -13t13.5 -28v-7.5v-6.5v-130v-1.5v-0.5v-10.5t-2 -11.5q-2 -9 -9 -17.5t-22 -11.5l47 -149h-73l-38 142h-5v-142h-70v0zM235 508h10q11 0 17.5 6t6.5 18v132q0 11 -6 15t-17 4h-11v-175v0z" />
    <glyph glyph-name="macron" unicode="&#xaf;" horiz-adv-x="217" 
d="M49 0v840h119v-840h-119v0zM-20 917v98h89v-98h-89v0zM148 917v98h89v-98h-89v0z" />
    <glyph glyph-name="degree" unicode="&#xb0;" horiz-adv-x="315" 
d="M189 574h-63q-48 0 -66 27t-18 69v86q0 49 21.5 72.5t62.5 23.5h63q41 0 62.5 -23.5t21.5 -72.5v-86q0 -42 -18 -69t-66 -27v0zM132 741v-56v-6.5t1 -7.5q1 -9 6.5 -16t18.5 -8q11 1 16.5 7t6.5 13q2 5 2 9.5v7.5v0.5v0.5v56v0.5v0.5v7.5t-2 9.5q-1 7 -6.5 13t-16.5 7
q-13 -1 -18 -8t-7 -15q-1 -4 -1 -8v-7v0z" />
    <glyph glyph-name="at" unicode="&#xb1;" horiz-adv-x="810" 
d="M120 98v70h472v-70h-472v0zM391 217h-70v140h-201v70h201v178h70v-178h201v-70h-201v-140v0z" />
    <glyph glyph-name="P" unicode="&#xb2;" horiz-adv-x="217" 
d="M49 0v840h119v-840h-119v0z" />
    <glyph glyph-name="S" unicode="&#xb3;" horiz-adv-x="183" 
d="M42 0v672h99v-672h-99v0zM42 733v101h99v-101h-99v0z" />
    <glyph glyph-name="T" unicode="&#xb4;" 
 />
    <glyph glyph-name="U" unicode="&#xb5;" horiz-adv-x="332" 
d="M290 672v-672h-100v51q-1 -4 -2 -7t-3 -6q-2 -4 -5 -8t-6 -6l-4 -2t-4 -1t-4.5 1t-4.5 3q-5 3 -9 10t-6 16v-265h-100v294v592h100v-551q0 -11 4.5 -18.5t10.5 -10.5q2 -2 5 -3t5 -1h1.5h1.5q7 2 13.5 11t6.5 22v551h100v0z" />
    <glyph glyph-name="V" unicode="&#xb6;" horiz-adv-x="514" 
d="M249 -280h-67v700h-14q-70 0 -102.5 34.5t-36.5 76.5q-1 4 -1 7.5v7.5v5.5v5.5q4 43 36 79t104 36h81v-952v0zM374 672h67v-952h-67v952v0z" />
    <glyph glyph-name="quoteleft" unicode="&#xb8;" horiz-adv-x="318" 
d="M190 238h100v-153q0 -50 -18.5 -69.5t-39.5 -24.5q-10 -3 -19 -3.5t-17 -0.5l-64 -1q-45 1 -63.5 19.5t-23.5 40.5q-2 10 -2.5 20t-0.5 18v502q0 8 1 20t6 25q7 21 25.5 38t57.5 17h63q47 0 71 -28.5t24 -69.5v-284h-148v-226q0 -1 0.5 -3t0.5 -3q2 -6 7 -10t13 -4
q12 0 19.5 5.5t7.5 14.5v160v0zM142 371h48v222q0 11 -7.5 15.5t-16.5 5.5h-1.5h-1.5q-8 0 -12.5 -3.5t-6.5 -7.5q-1 -3 -1.5 -6t-0.5 -4v-222v0zM43 735v99h99v-99h-99v0zM190 735v99h100v-99h-100v0z" />
    <glyph glyph-name="one" unicode="&#xb9;" horiz-adv-x="710" 
d="M42 0v840h130l73 -395v395h119v-840h-129l-74 401v-401h-119v0zM415 66v73h251v-73h-251v0zM578 245h-74h-0.5h-0.5h-10.5h-10.5q-26 2 -47.5 17.5t-21.5 71.5v168v2v2q0 7 0.5 17.5t2.5 21.5q6 20 24 37.5t63 17.5h75q43 0 61.5 -18t24.5 -40q3 -11 3.5 -21.5t0.5 -18.5
v-169q0 -44 -16 -62t-36 -23q-10 -2 -19.5 -2.5t-16.5 -0.5h-1.5h-0.5v0zM517 509v-181q0 -10 7 -17t17 -7q11 0 17.5 7t6.5 17v181q0 9 -5.5 15t-11.5 9q-2 0 -3.5 0.5t-3.5 0.5t-3.5 -0.5t-3.5 -0.5q-6 -3 -11.5 -9t-5.5 -15v0z" />
    <glyph glyph-name="G" unicode="&#xba;" horiz-adv-x="318" 
d="M276 238v-152q0 -53 -18 -72.5t-39 -23.5q-9 -2 -18 -2.5t-16 -0.5h-0.5h-0.5l-67 -1q-1 1 -2 1h-2h-13.5t-15.5 2q-21 4 -38.5 23t-17.5 75v490v0.5v1.5q0 9 0.5 21.5t3.5 25.5q6 22 24.5 41t60.5 19h66q45 0 64 -20t25 -43q3 -14 3.5 -26.5t0.5 -21.5v-113h-100v130
q0 10 -7 15.5t-15 6.5h-1.5h-1.5q-9 0 -16 -6t-7 -16v-220h87v-68h-87v-223q0 -9 5 -14.5t10 -7.5q2 0 4 -0.5t4 -0.5h1.5h1.5q8 1 15 6.5t7 16.5v157h100v0z" />
    <glyph glyph-name="bracketleft" unicode="&#xbb;" horiz-adv-x="375" 
d="M138 93h-96l53 247l-53 252h96l52 -262l-52 -237v0zM281 93h-96l53 247l-53 252h96l52 -262l-52 -237v0z" />
    <glyph glyph-name="w" unicode="&#xbc;" horiz-adv-x="184" 
d="M42 -210v882h100v-882h-100v0zM42 733v100h100v-100h-100v0z" />
    <glyph glyph-name="bracketright" unicode="&#xbd;" horiz-adv-x="378" 
d="M42 291h119v-204q0 -10 7.5 -16t16.5 -7h1.5h1.5q11 0 19.5 5.5t8.5 17.5v188q0 20 -7 29.5t-16 18.5h-0.5t-0.5 1l-4.5 4.5l-4.5 4.5l-96 107q-15 17 -23.5 28t-12.5 20q-5 11 -5.5 23t-0.5 31v181v8.5v8.5q-1 5 -1 9.5v9.5v4v4q1 33 20 60t85 27h72q67 0 89 -26.5
t25 -58.5q1 -9 1 -18.5v-17.5v-5.5v-4.5v-147h-119v178q0 7 -5 12t-11 8q-3 2 -6 2.5t-5 0.5t-5 -0.5t-6 -1.5q-6 -2 -11.5 -7.5t-5.5 -13.5v-172v-2.5v-3.5q0 -9 0.5 -16.5t2.5 -15.5q2 -7 7 -15.5t14 -18.5l104 -113l1.5 -1.5l1.5 -1.5q4 -4 8.5 -8t8.5 -8q11 -9 18 -21
t7 -36v-206q0 -97 -22 -112.5t-89 -15.5h-2.5h-3.5l-70 -1q-1 1 -2.5 1h-3.5q-37 0 -68.5 20t-31.5 108v176v0z" />
    <glyph glyph-name="R" unicode="&#xbe;" horiz-adv-x="318" 
d="M35 233h100v-150q0 -11 6.5 -18t16.5 -7q11 0 16.5 6t7.5 13q1 2 1 3.5v2.5v135q0 16 -3 26.5t-9 20.5l-6.5 8.5t-8.5 9.5l-90 94q-10 11 -16.5 20t-9.5 17q-4 11 -4.5 22.5t-0.5 26.5v2.5v3.5v122q0 56 20.5 73.5t45.5 20.5q7 1 13.5 1h12.5h67q45 0 63 -17.5t23 -37.5
q2 -10 2.5 -19.5t0.5 -17.5v-1.5v-0.5v-139h-100v137q0 11 -7 17.5t-16 6.5h-1.5h-1.5q-8 -1 -15 -7t-7 -17v-112q0 -21 10.5 -36.5t23.5 -29.5l69 -71q14 -14 22.5 -25.5t13.5 -21.5q7 -14 8 -29t1 -39v-138q0 -8 -0.5 -16t-1.5 -17q-4 -26 -22 -47t-66 -21l-69 -1
q-44 1 -62 18t-24 38q-2 11 -2.5 22t-0.5 19v2.5v2.5v145v0z" />
    <glyph glyph-name="underscore" unicode="&#xbf;" horiz-adv-x="185" 
d="M43 0v672h100v-672h-100v0zM-31 735v99h99v-99h-99v0zM116 735v99h100v-99h-100v0z" />
    <glyph glyph-name="grave" unicode="&#xc0;" horiz-adv-x="407" 
d="M28 0l88 840h179l84 -840h-117l-20 234h-81l-18 -234h-115v0zM166 312h70l-31 427h-6l-33 -427v0z" />
    <glyph glyph-name="grave" unicode="&#x410;" horiz-adv-x="407" 
d="M28 0l88 840h179l84 -840h-117l-20 234h-81l-18 -234h-115v0zM166 312h70l-31 427h-6l-33 -427v0z" />
    <glyph glyph-name="a" unicode="&#xc1;" horiz-adv-x="384" 
d="M49 0v840h267v-77h-148v-285h60q9 0 23 -1t28 -6q24 -8 43.5 -31.5t19.5 -76.5v-246q0 -9 -1 -23t-6 -30q-7 -24 -31 -44t-77 -20h-178v0zM168 78h23q13 0 22.5 9.5t9.5 30.5v235q0 21 -6 31t-13 13q-4 2 -7 2.5t-6 0.5h-23v-322v0z" />
    <glyph glyph-name="a" unicode="&#x411;" horiz-adv-x="384" 
d="M49 0v840h267v-77h-148v-285h60q9 0 23 -1t28 -6q24 -8 43.5 -31.5t19.5 -76.5v-246q0 -9 -1 -23t-6 -30q-7 -24 -31 -44t-77 -20h-178v0zM168 78h23q13 0 22.5 9.5t9.5 30.5v235q0 21 -6 31t-13 13q-4 2 -7 2.5t-6 0.5h-23v-322v0z" />
    <glyph glyph-name="b" unicode="&#xc2;" horiz-adv-x="384" 
d="M49 0v840h176q58 0 81 -22.5t29 -50.5q3 -12 3.5 -24.5t0.5 -22.5v-0.5v-1.5v-186q0 -45 -20.5 -65.5t-45.5 -27.5q-10 -2 -19.5 -3t-17.5 -1v-8q8 0 17 -1t18 -3q27 -6 49 -24.5t22 -56.5v-226q0 -57 -23 -81t-51 -30q-11 -3 -22.5 -4t-21.5 -1h-175v0zM168 78h13
q16 0 29 10t13 34v229q0 28 -12.5 39.5t-27.5 11.5h-15v-324v0zM168 476h12q23 0 33 9.5t10 28.5v207q0 20 -12.5 31t-29.5 11h-13v-287v0z" />
    <glyph glyph-name="b" unicode="&#x412;" horiz-adv-x="384" 
d="M49 0v840h176q58 0 81 -22.5t29 -50.5q3 -12 3.5 -24.5t0.5 -22.5v-0.5v-1.5v-186q0 -45 -20.5 -65.5t-45.5 -27.5q-10 -2 -19.5 -3t-17.5 -1v-8q8 0 17 -1t18 -3q27 -6 49 -24.5t22 -56.5v-226q0 -57 -23 -81t-51 -30q-11 -3 -22.5 -4t-21.5 -1h-175v0zM168 78h13
q16 0 29 10t13 34v229q0 28 -12.5 39.5t-27.5 11.5h-15v-324v0zM168 476h12q23 0 33 9.5t10 28.5v207q0 20 -12.5 31t-29.5 11h-13v-287v0z" />
    <glyph glyph-name="c" unicode="&#xc3;" horiz-adv-x="269" 
d="M14 0v840h241v-77h-122v-763h-119v0z" />
    <glyph glyph-name="c" unicode="&#x413;" horiz-adv-x="269" 
d="M14 0v840h241v-77h-122v-763h-119v0z" />
    <glyph glyph-name="d" unicode="&#xc4;" horiz-adv-x="437" 
d="M49 -140v217h31l69 763h188l70 -763h30v-217h-119v140h-150v-140h-119v0zM199 77h87l-37 609h-9l-41 -609v0z" />
    <glyph glyph-name="d" unicode="&#x414;" horiz-adv-x="437" 
d="M49 -140v217h31l69 763h188l70 -763h30v-217h-119v140h-150v-140h-119v0zM199 77h87l-37 609h-9l-41 -609v0z" />
    <glyph glyph-name="e" unicode="&#xc5;" horiz-adv-x="337" 
d="M28 0v840h279v-77h-160v-287h160v-77h-160v-321h162v-78h-281v0z" />
    <glyph glyph-name="e" unicode="&#x415;" horiz-adv-x="337" 
d="M28 0v840h279v-77h-160v-287h160v-77h-160v-321h162v-78h-281v0z" />
    <glyph glyph-name="f" unicode="&#xc6;" horiz-adv-x="550" 
d="M28 0l98 438l-91 402h125l55 -364h2v364h116v-354h1l64 354h113l-91 -402l102 -438h-122l-66 352h-1v-352h-116v352h-2l-69 -352h-118v0z" />
    <glyph glyph-name="f" unicode="&#x416;" horiz-adv-x="550" 
d="M28 0l98 438l-91 402h125l55 -364h2v364h116v-354h1l64 354h113l-91 -402l102 -438h-122l-66 352h-1v-352h-116v352h-2l-69 -352h-118v0z" />
    <glyph glyph-name="g" unicode="&#xc7;" horiz-adv-x="378" 
d="M35 294h119v-205v-1.5v-1.5q1 -9 9.5 -16.5t18.5 -7.5q11 0 19 7.5t9 16.5v1.5v1.5v252q0 4 -0.5 9t-1.5 10q-3 14 -15.5 25.5t-44.5 11.5h-47v77h47q35 0 46.5 12.5t13.5 28.5q1 4 1 9v9v221q0 9 -4 14t-8 7q-5 2 -9 2.5l-4 0.5q-13 0 -21.5 -7t-8.5 -17v-180h-117v147
q0 11 1 25.5t5 28.5q7 30 31 54.5t79 24.5h69q7 0 13.5 -0.5t13.5 -1.5q30 -4 54.5 -30t24.5 -101v-188q0 -7 -1 -15.5t-3 -17.5q-6 -19 -24 -35t-59 -20v-12h2h2h1h2q34 0 50.5 -15t23.5 -32q5 -14 6 -26t1 -18v-229q0 -88 -29.5 -106.5t-64.5 -19.5h-6h-6h-0.5h-0.5
l-79 -1q0 1 -0.5 1h-0.5q-9 0 -20.5 0.5t-23.5 4.5q-24 7 -43.5 32t-19.5 88v182v0z" />
    <glyph glyph-name="g" unicode="&#x417;" horiz-adv-x="378" 
d="M35 294h119v-205v-1.5v-1.5q1 -9 9.5 -16.5t18.5 -7.5q11 0 19 7.5t9 16.5v1.5v1.5v252q0 4 -0.5 9t-1.5 10q-3 14 -15.5 25.5t-44.5 11.5h-47v77h47q35 0 46.5 12.5t13.5 28.5q1 4 1 9v9v221q0 9 -4 14t-8 7q-5 2 -9 2.5l-4 0.5q-13 0 -21.5 -7t-8.5 -17v-180h-117v147
q0 11 1 25.5t5 28.5q7 30 31 54.5t79 24.5h69q7 0 13.5 -0.5t13.5 -1.5q30 -4 54.5 -30t24.5 -101v-188q0 -7 -1 -15.5t-3 -17.5q-6 -19 -24 -35t-59 -20v-12h2h2h1h2q34 0 50.5 -15t23.5 -32q5 -14 6 -26t1 -18v-229q0 -88 -29.5 -106.5t-64.5 -19.5h-6h-6h-0.5h-0.5
l-79 -1q0 1 -0.5 1h-0.5q-9 0 -20.5 0.5t-23.5 4.5q-24 7 -43.5 32t-19.5 88v182v0z" />
    <glyph glyph-name="h" unicode="&#xc8;" horiz-adv-x="405" 
d="M49 0v840h119v-418l69 418h119v-840h-119v405l-69 -405h-119v0z" />
    <glyph glyph-name="h" unicode="&#x418;" horiz-adv-x="405" 
d="M49 0v840h119v-418l69 418h119v-840h-119v405l-69 -405h-119v0z" />
    <glyph glyph-name="i" unicode="&#xc9;" horiz-adv-x="405" 
d="M49 0v840h119v-418l69 418h119v-840h-119v405l-69 -405h-119v0zM68 986h101v-20q0 -14 9 -23.5t24 -9.5q14 0 22 8.5t10 17.5q1 2 1 3.5v3.5v20h101v-15q0 -7 -0.5 -15.5t-2.5 -17.5q-5 -22 -23.5 -40t-64.5 -18h-87q-46 0 -64.5 18t-22.5 40q-2 9 -2.5 17.5t-0.5 15.5
v15v0z" />
    <glyph glyph-name="i" unicode="&#x419;" horiz-adv-x="405" 
d="M49 0v840h119v-418l69 418h119v-840h-119v405l-69 -405h-119v0zM68 986h101v-20q0 -14 9 -23.5t24 -9.5q14 0 22 8.5t10 17.5q1 2 1 3.5v3.5v20h101v-15q0 -7 -0.5 -15.5t-2.5 -17.5q-5 -22 -23.5 -40t-64.5 -18h-87q-46 0 -64.5 18t-22.5 40q-2 9 -2.5 17.5t-0.5 15.5
v15v0z" />
    <glyph glyph-name="j" unicode="&#xca;" horiz-adv-x="386" 
d="M49 0v840h119v-361l60 361h118l-74 -397l86 -443h-115l-75 400v-400h-119v0z" />
    <glyph glyph-name="j" unicode="&#x41a;" horiz-adv-x="386" 
d="M49 0v840h119v-361l60 361h118l-74 -397l86 -443h-115l-75 400v-400h-119v0z" />
    <glyph glyph-name="k" unicode="&#xcb;" horiz-adv-x="407" 
d="M223 625l-35 -509q-1 -10 -2 -21.5t-3 -23.5q-6 -32 -28.5 -58t-79.5 -26l-61 -1v80q23 0 33.5 10t14.5 21q2 8 3 15t1 11l67 717h190l56 -840h-122l-23 625h-11v0z" />
    <glyph glyph-name="k" unicode="&#x41b;" horiz-adv-x="407" 
d="M223 625l-35 -509q-1 -10 -2 -21.5t-3 -23.5q-6 -32 -28.5 -58t-79.5 -26l-61 -1v80q23 0 33.5 10t14.5 21q2 8 3 15t1 11l67 717h190l56 -840h-122l-23 625h-11v0z" />
    <glyph glyph-name="l" unicode="&#xcc;" horiz-adv-x="623" 
d="M49 0v840h175l86 -565l99 565h165v-840h-119v522l-77 -522h-127l-83 522v-522h-119v0z" />
    <glyph glyph-name="l" unicode="&#x41c;" horiz-adv-x="623" 
d="M49 0v840h175l86 -565l99 565h165v-840h-119v522l-77 -522h-127l-83 522v-522h-119v0z" />
    <glyph glyph-name="m" unicode="&#xcd;" horiz-adv-x="390" 
d="M49 0v840h119v-361h54v361h119v-840h-119v401h-54v-401h-119v0z" />
    <glyph glyph-name="m" unicode="&#x41d;" horiz-adv-x="390" 
d="M49 0v840h119v-361h54v361h119v-840h-119v401h-54v-401h-119v0z" />
    <glyph glyph-name="n" unicode="&#xce;" horiz-adv-x="377" 
d="M42 113v605v0.5v1.5q0 10 1 26.5t6 35.5q8 27 29.5 49.5t69.5 22.5h81q47 0 69 -22t30 -49q5 -18 6 -35t1 -27v-1.5v-1.5v-605v-1.5v-1.5v-19t-2 -21q-3 -31 -23.5 -57t-80.5 -26l-81 -1q-3 1 -5.5 1h-4.5q-36 1 -66 21t-30 105v0zM161 748v-655v-1.5v-1.5q1 -10 8 -18
t20 -8q12 0 19.5 7.5t7.5 21.5v655q0 12 -6.5 19t-14.5 9q-1 1 -2.5 1h-3.5q-11 0 -19 -8t-9 -18v-1.5v-1.5v0z" />
    <glyph glyph-name="n" unicode="&#x41e;" horiz-adv-x="377" 
d="M42 113v605v0.5v1.5q0 10 1 26.5t6 35.5q8 27 29.5 49.5t69.5 22.5h81q47 0 69 -22t30 -49q5 -18 6 -35t1 -27v-1.5v-1.5v-605v-1.5v-1.5v-19t-2 -21q-3 -31 -23.5 -57t-80.5 -26l-81 -1q-3 1 -5.5 1h-4.5q-36 1 -66 21t-30 105v0zM161 748v-655v-1.5v-1.5q1 -10 8 -18
t20 -8q12 0 19.5 7.5t7.5 21.5v655q0 12 -6.5 19t-14.5 9q-1 1 -2.5 1h-3.5q-11 0 -19 -8t-9 -18v-1.5v-1.5v0z" />
    <glyph glyph-name="o" unicode="&#xcf;" horiz-adv-x="391" 
d="M49 0v840h293v-840h-119v763h-55v-763h-119v0z" />
    <glyph glyph-name="o" unicode="&#x41f;" horiz-adv-x="391" 
d="M49 0v840h293v-840h-119v763h-55v-763h-119v0z" />
    <glyph glyph-name="p" unicode="&#xd0;" horiz-adv-x="370" 
d="M49 0v840h185q8 0 17.5 -0.5t19.5 -1.5q27 -5 49 -29.5t22 -91.5v-289q0 -83 -29 -104.5t-64 -23.5h-7.5h-7.5h-66v-300h-119v0zM168 377h14q16 0 28.5 8.5t12.5 32.5v302q0 20 -8 30.5t-31 11.5l-16 1v-386v0z" />
    <glyph glyph-name="p" unicode="&#x420;" horiz-adv-x="370" 
d="M49 0v840h185q8 0 17.5 -0.5t19.5 -1.5q27 -5 49 -29.5t22 -91.5v-289q0 -83 -29 -104.5t-64 -23.5h-7.5h-7.5h-66v-300h-119v0zM168 377h14q16 0 28.5 8.5t12.5 32.5v302q0 20 -8 30.5t-31 11.5l-16 1v-386v0z" />
    <glyph glyph-name="q" unicode="&#xd1;" horiz-adv-x="371" 
d="M224 294h119v-183v-1.5v-1.5q0 -10 -0.5 -23.5t-3.5 -27.5q-6 -26 -28 -48t-75 -22l-81 -1q-5 1 -10.5 1t-11.5 1q-31 2 -57.5 23.5t-26.5 100.5v606v14t1 15q1 35 20 65t85 30h81q56 0 77.5 -22.5t26.5 -49.5q2 -12 2.5 -23.5t0.5 -21.5v-3.5v-2.5v-162h-119v193
q0 9 -6 15.5t-13 9.5q-2 1 -5 1.5t-5 0.5q-10 0 -18 -7.5t-9 -16.5v-1.5v-1.5v-660v-2v-3q2 -8 9 -14.5t18 -6.5t20 7.5t9 18.5v204v0z" />
    <glyph glyph-name="q" unicode="&#x421;" horiz-adv-x="371" 
d="M224 294h119v-183v-1.5v-1.5q0 -10 -0.5 -23.5t-3.5 -27.5q-6 -26 -28 -48t-75 -22l-81 -1q-5 1 -10.5 1t-11.5 1q-31 2 -57.5 23.5t-26.5 100.5v606v14t1 15q1 35 20 65t85 30h81q56 0 77.5 -22.5t26.5 -49.5q2 -12 2.5 -23.5t0.5 -21.5v-3.5v-2.5v-162h-119v193
q0 9 -6 15.5t-13 9.5q-2 1 -5 1.5t-5 0.5q-10 0 -18 -7.5t-9 -16.5v-1.5v-1.5v-660v-2v-3q2 -8 9 -14.5t18 -6.5t20 7.5t9 18.5v204v0z" />
    <glyph glyph-name="Scaron" unicode="&#xd2;" horiz-adv-x="327" 
d="M104 0v763h-90v77h299v-77h-90v-763h-119v0z" />
    <glyph glyph-name="Scaron" unicode="&#x422;" horiz-adv-x="327" 
d="M104 0v763h-90v77h299v-77h-90v-763h-119v0z" />
    <glyph glyph-name="r" unicode="&#xd3;" horiz-adv-x="397" 
d="M43 -14v80h28q35 0 49.5 12t18.5 27q2 5 2.5 10t1.5 9l8 65l-130 651h128l60 -435l48 435h119l-117 -726q-15 -93 -51 -110t-95 -17l-70 -1v0z" />
    <glyph glyph-name="r" unicode="&#x423;" horiz-adv-x="397" 
d="M43 -14v80h28q35 0 49.5 12t18.5 27q2 5 2.5 10t1.5 9l8 65l-130 651h128l60 -435l48 435h119l-117 -726q-15 -93 -51 -110t-95 -17l-70 -1v0z" />
    <glyph glyph-name="t" unicode="&#xd4;" horiz-adv-x="535" 
d="M208 0v88h-55q-8 0 -17 0.5t-18 2.5q-26 6 -47.5 30.5t-21.5 87.5v471q0 64 22 88.5t49 29.5q8 2 16.5 2.5t16.5 0.5h56v55h118v-55h59q43 0 64 -20t28 -43q6 -18 7 -34t1 -24v-471q0 -59 -19.5 -84t-42.5 -32q-10 -3 -20 -4t-18 -1h-59v-88h-119v0zM208 164v560h-2.5
h-3.5q-14 0 -21 -7.5t-10 -17.5q-2 -7 -2.5 -13t-0.5 -9v-467v0v-1q0 -3 0.5 -9t2.5 -12q3 -9 11 -16.5t26 -7.5v0zM327 724v-560q18 0 26.5 7.5t10.5 16.5q2 6 2.5 11.5t0.5 9.5v0.5v0.5v467q0 19 -8.5 33t-28.5 14h-1.5h-1.5v0z" />
    <glyph glyph-name="t" unicode="&#x424;" horiz-adv-x="535" 
d="M208 0v88h-55q-8 0 -17 0.5t-18 2.5q-26 6 -47.5 30.5t-21.5 87.5v471q0 64 22 88.5t49 29.5q8 2 16.5 2.5t16.5 0.5h56v55h118v-55h59q43 0 64 -20t28 -43q6 -18 7 -34t1 -24v-471q0 -59 -19.5 -84t-42.5 -32q-10 -3 -20 -4t-18 -1h-59v-88h-119v0zM208 164v560h-2.5
h-3.5q-14 0 -21 -7.5t-10 -17.5q-2 -7 -2.5 -13t-0.5 -9v-467v0v-1q0 -3 0.5 -9t2.5 -12q3 -9 11 -16.5t26 -7.5v0zM327 724v-560q18 0 26.5 7.5t10.5 16.5q2 6 2.5 11.5t0.5 9.5v0.5v0.5v467q0 19 -8.5 33t-28.5 14h-1.5h-1.5v0z" />
    <glyph glyph-name="u" unicode="&#xd5;" horiz-adv-x="390" 
d="M21 0l78 429l-78 411h124l43 -285l38 285h125l-73 -411l91 -429h-126l-55 291l-43 -291h-124v0z" />
    <glyph glyph-name="u" unicode="&#x425;" horiz-adv-x="390" 
d="M21 0l78 429l-78 411h124l43 -285l38 285h125l-73 -411l91 -429h-126l-55 291l-43 -291h-124v0z" />
    <glyph glyph-name="zero" unicode="&#xd6;" horiz-adv-x="386" 
d="M49 0v840h119v-762h55v762h119v-762h30v-218h-119v140h-204v0z" />
    <glyph glyph-name="zero" unicode="&#x426;" horiz-adv-x="386" 
d="M49 0v840h119v-762h55v762h119v-762h30v-218h-119v140h-204v0z" />
    <glyph glyph-name="parenright" unicode="&#xd7;" horiz-adv-x="370" 
d="M202 0v317h-66q-68 0 -88 18t-20 102v403h119v-404q0 -3 0.5 -8t2.5 -11q2 -8 10 -15.5t25 -7.5h17v446h119v-840h-119v0z" />
    <glyph glyph-name="parenright" unicode="&#x427;" horiz-adv-x="370" 
d="M202 0v317h-66q-68 0 -88 18t-20 102v403h119v-404q0 -3 0.5 -8t2.5 -11q2 -8 10 -15.5t25 -7.5h17v446h119v-840h-119v0z" />
    <glyph glyph-name="x" unicode="&#xd8;" horiz-adv-x="565" 
d="M49 0v840h119v-762h55v762h119v-762h55v762h119v-840h-467v0z" />
    <glyph glyph-name="x" unicode="&#x428;" horiz-adv-x="565" 
d="M49 0v840h119v-762h55v762h119v-762h55v762h119v-840h-467v0z" />
    <glyph glyph-name="y" unicode="&#xd9;" horiz-adv-x="560" 
d="M49 0v840h119v-762h55v762h119v-762h55v762h119v-762h30v-215h-118v137h-379v0z" />
    <glyph glyph-name="y" unicode="&#x429;" horiz-adv-x="560" 
d="M49 0v840h119v-762h55v762h119v-762h55v762h119v-762h30v-215h-118v137h-379v0z" />
    <glyph glyph-name="z" unicode="&#xda;" horiz-adv-x="440" 
d="M105 0v763h-91v77h210v-307h63q9 0 22 -1t26 -5q24 -7 43.5 -30.5t19.5 -77.5v-302q0 -10 -0.5 -22.5t-4.5 -26.5q-6 -25 -29 -46.5t-79 -21.5h-180v0zM224 78h24q13 0 22 10.5t9 28.5v291v9.5t-1 10.5q-2 11 -8.5 19.5t-22.5 8.5h-23v-378v0z" />
    <glyph glyph-name="z" unicode="&#x42a;" horiz-adv-x="440" 
d="M105 0v763h-91v77h210v-307h63q9 0 22 -1t26 -5q24 -7 43.5 -30.5t19.5 -77.5v-302q0 -10 -0.5 -22.5t-4.5 -26.5q-6 -25 -29 -46.5t-79 -21.5h-180v0zM224 78h24q13 0 22 10.5t9 28.5v291v9.5t-1 10.5q-2 11 -8.5 19.5t-22.5 8.5h-23v-378v0z" />
    <glyph glyph-name="braceleft" unicode="&#xdb;" horiz-adv-x="548" 
d="M42 0v840h119v-306h63q53 0 76 -20.5t30 -45.5q4 -14 4.5 -26.5t0.5 -22.5v-303q0 -9 -1 -23t-6 -29q-7 -24 -30.5 -44t-74.5 -20h-181v0zM161 78h24q13 0 22 10.5t9 28.5v292v9.5t-2 10.5q-2 10 -8.5 18.5t-21.5 8.5h-23v-378v0zM387 0v840h119v-840h-119v0z" />
    <glyph glyph-name="braceleft" unicode="&#x42b;" horiz-adv-x="548" 
d="M42 0v840h119v-306h63q53 0 76 -20.5t30 -45.5q4 -14 4.5 -26.5t0.5 -22.5v-303q0 -9 -1 -23t-6 -29q-7 -24 -30.5 -44t-74.5 -20h-181v0zM161 78h24q13 0 22 10.5t9 28.5v292v9.5t-2 10.5q-2 10 -8.5 18.5t-21.5 8.5h-23v-378v0zM387 0v840h119v-840h-119v0z" />
    <glyph glyph-name="bar" unicode="&#xdc;" horiz-adv-x="377" 
d="M42 0v840h119v-306h63h0.5h0.5q9 0 21.5 -0.5t26.5 -5.5q23 -7 42.5 -30.5t19.5 -78.5v-301v-0.5v-1.5q0 -9 -0.5 -22.5t-4.5 -27.5q-7 -25 -30 -45.5t-77 -20.5h-181v0zM161 78h23q14 0 23 10.5t9 28.5v292q0 22 -6 32t-13 13q-4 2 -7 2.5t-6 0.5h-23v-379v0z" />
    <glyph glyph-name="bar" unicode="&#x42c;" horiz-adv-x="377" 
d="M42 0v840h119v-306h63h0.5h0.5q9 0 21.5 -0.5t26.5 -5.5q23 -7 42.5 -30.5t19.5 -78.5v-301v-0.5v-1.5q0 -9 -0.5 -22.5t-4.5 -27.5q-7 -25 -30 -45.5t-77 -20.5h-181v0zM161 78h23q14 0 23 10.5t9 28.5v292q0 22 -6 32t-13 13q-4 2 -7 2.5t-6 0.5h-23v-379v0z" />
    <glyph glyph-name="braceright" unicode="&#xdd;" horiz-adv-x="385" 
d="M42 294h119v-206q0 -10 9 -17t20 -7t17.5 5.5t8.5 11.5q0 2 0.5 3.5t0.5 3.5v311h-98v78h98v274q0 10 -6.5 16.5t-14.5 8.5q-1 1 -2.5 1h-3.5t-5 -0.5t-7 -2.5q-6 -3 -11.5 -8.5t-5.5 -14.5v-188h-117v159v1.5v0.5q0 11 0.5 25t3.5 29q7 29 29.5 52.5t76.5 23.5h76
q7 0 13.5 -0.5t13.5 -1.5q30 -4 54.5 -30t24.5 -102v-604v-0.5v-0.5q0 -11 -0.5 -25.5t-4.5 -30.5q-7 -27 -28.5 -49.5t-72.5 -22.5l-76 -1q-9 1 -18.5 1.5t-19.5 2.5q-28 6 -51 31t-23 94v179v0z" />
    <glyph glyph-name="braceright" unicode="&#x42d;" horiz-adv-x="385" 
d="M42 294h119v-206q0 -10 9 -17t20 -7t17.5 5.5t8.5 11.5q0 2 0.5 3.5t0.5 3.5v311h-98v78h98v274q0 10 -6.5 16.5t-14.5 8.5q-1 1 -2.5 1h-3.5t-5 -0.5t-7 -2.5q-6 -3 -11.5 -8.5t-5.5 -14.5v-188h-117v159v1.5v0.5q0 11 0.5 25t3.5 29q7 29 29.5 52.5t76.5 23.5h76
q7 0 13.5 -0.5t13.5 -1.5q30 -4 54.5 -30t24.5 -102v-604v-0.5v-0.5q0 -11 -0.5 -25.5t-4.5 -30.5q-7 -27 -28.5 -49.5t-72.5 -22.5l-76 -1q-9 1 -18.5 1.5t-19.5 2.5q-28 6 -51 31t-23 94v179v0z" />
    <glyph glyph-name="asciitilde" unicode="&#xde;" horiz-adv-x="560" 
d="M168 479h57v239q0 65 20 93t45 37q11 4 22 5t20 1h80q47 0 69 -22t30 -49q5 -18 6 -35t1 -27v-1.5v-1.5v-605v-0.5v-0.5q0 -10 -0.5 -21.5t-1.5 -23.5q-5 -30 -25.5 -55t-78.5 -25l-81 -1q-58 1 -78.5 26t-25.5 55q-1 12 -1.5 23.5t-0.5 21.5v0.5v0.5v289h-57v-402h-119
v840h119v-361v0zM344 748v-655q0 -11 7 -20t20 -9t20 8t8 18v1.5v1.5v655v1.5v1.5q-1 10 -9 18t-19 8q-10 0 -18.5 -9t-8.5 -20v0z" />
    <glyph glyph-name="asciitilde" unicode="&#x42e;" horiz-adv-x="560" 
d="M168 479h57v239q0 65 20 93t45 37q11 4 22 5t20 1h80q47 0 69 -22t30 -49q5 -18 6 -35t1 -27v-1.5v-1.5v-605v-0.5v-0.5q0 -10 -0.5 -21.5t-1.5 -23.5q-5 -30 -25.5 -55t-78.5 -25l-81 -1q-58 1 -78.5 26t-25.5 55q-1 12 -1.5 23.5t-0.5 21.5v0.5v0.5v289h-57v-402h-119
v840h119v-361v0zM344 748v-655q0 -11 7 -20t20 -9t20 8t8 18v1.5v1.5v655v1.5v1.5q-1 10 -9 18t-19 8q-10 0 -18.5 -9t-8.5 -20v0z" />
    <glyph glyph-name="germandbls" unicode="&#xdf;" horiz-adv-x="388" 
d="M21 0l95 324q-31 3 -46 20t-20 36q-4 14 -4.5 27t-0.5 21v0.5v0.5v293q0 10 0.5 23t4.5 27q6 25 28.5 46.5t75.5 21.5h185v-840h-119v320h-6l-70 -320h-123v0zM220 763h-13q-19 0 -31 -8t-12 -34v-291q0 -19 11 -31t32 -12h13v376v0z" />
    <glyph glyph-name="germandbls" unicode="&#x42f;" horiz-adv-x="388" 
d="M21 0l95 324q-31 3 -46 20t-20 36q-4 14 -4.5 27t-0.5 21v0.5v0.5v293q0 10 0.5 23t4.5 27q6 25 28.5 46.5t75.5 21.5h185v-840h-119v320h-6l-70 -320h-123v0zM220 763h-13q-19 0 -31 -8t-12 -34v-291q0 -19 11 -31t32 -12h13v376v0z" />
    <glyph glyph-name="agrave" unicode="&#xe0;" horiz-adv-x="332" 
d="M42 468v130q0 41 17.5 59t38.5 24q10 3 20.5 4t18.5 1h67q35 0 60.5 -23t25.5 -64v-599h-100v33q-27 -31 -48 -38.5t-38 -7.5q-34 0 -46 19.5t-15 43.5q-1 10 -1 19v17v196q0 26 14.5 45.5t31.5 32.5q11 9 22 14.5l17 8.5l4 2l4 2q20 10 37.5 26t17.5 47v132q0 9 -5.5 14
t-11.5 7q-2 0 -3.5 0.5t-3.5 0.5t-3.5 -0.5t-3.5 -0.5q-6 -2 -11.5 -7t-5.5 -14v-124h-100v0zM190 358q-20 -10 -30 -19t-14 -17q-3 -7 -3.5 -14t-0.5 -16v-2.5v-3.5v-190q0 -10 5 -16t10 -9q2 0 3.5 -0.5t3.5 -0.5t3.5 0.5t3.5 0.5q7 2 13 8.5t6 16.5v262v0z" />
    <glyph glyph-name="agrave" unicode="&#x430;" horiz-adv-x="332" 
d="M42 468v130q0 41 17.5 59t38.5 24q10 3 20.5 4t18.5 1h67q35 0 60.5 -23t25.5 -64v-599h-100v33q-27 -31 -48 -38.5t-38 -7.5q-34 0 -46 19.5t-15 43.5q-1 10 -1 19v17v196q0 26 14.5 45.5t31.5 32.5q11 9 22 14.5l17 8.5l4 2l4 2q20 10 37.5 26t17.5 47v132q0 9 -5.5 14
t-11.5 7q-2 0 -3.5 0.5t-3.5 0.5t-3.5 -0.5t-3.5 -0.5q-6 -2 -11.5 -7t-5.5 -14v-124h-100v0zM190 358q-20 -10 -30 -19t-14 -17q-3 -7 -3.5 -14t-0.5 -16v-2.5v-3.5v-190q0 -10 5 -16t10 -9q2 0 3.5 -0.5t3.5 -0.5t3.5 0.5t3.5 0.5q7 2 13 8.5t6 16.5v262v0z" />
    <glyph glyph-name="K" unicode="&#xe1;" horiz-adv-x="332" 
d="M274 865v-77h-83h-8.5t-9.5 -2q-12 -2 -21.5 -13.5t-9.5 -40.5v-106q11 17 25.5 30.5t30.5 21.5q8 4 16 6t15 2q33 0 45 -20t15 -44q1 -9 1 -18v-17v-499q0 -49 -16.5 -69.5t-36.5 -26.5q-11 -4 -21.5 -4.5t-18.5 -0.5l-65 -1q-7 1 -14.5 1.5t-14.5 1.5q-23 5 -42 24.5
t-19 73.5v646q0 10 1.5 26.5t8.5 34.5q10 27 38.5 49t87.5 22h96v0zM142 566v-485q0 -10 7 -16t15 -7h1.5h1.5q11 0 17 6.5t6 16.5v485q0 10 -6 17t-17 7q-9 0 -15 -5.5t-9 -11.5q0 -2 -0.5 -3.5t-0.5 -3.5v0z" />
    <glyph glyph-name="K" unicode="&#x431;" horiz-adv-x="332" 
d="M274 865v-77h-83h-8.5t-9.5 -2q-12 -2 -21.5 -13.5t-9.5 -40.5v-106q11 17 25.5 30.5t30.5 21.5q8 4 16 6t15 2q33 0 45 -20t15 -44q1 -9 1 -18v-17v-499q0 -49 -16.5 -69.5t-36.5 -26.5q-11 -4 -21.5 -4.5t-18.5 -0.5l-65 -1q-7 1 -14.5 1.5t-14.5 1.5q-23 5 -42 24.5
t-19 73.5v646q0 10 1.5 26.5t8.5 34.5q10 27 38.5 49t87.5 22h96v0zM142 566v-485q0 -10 7 -16t15 -7h1.5h1.5q11 0 17 6.5t6 16.5v485q0 10 -6 17t-17 7q-9 0 -15 -5.5t-9 -11.5q0 -2 -0.5 -3.5t-0.5 -3.5v0z" />
    <glyph glyph-name="quotedbl" unicode="&#xe2;" horiz-adv-x="332" 
d="M42 0v672h151q45 0 70.5 -23.5t25.5 -63.5v-164q0 -33 -18.5 -49t-40.5 -21q-7 -2 -14 -2.5t-13 -0.5v-2h3h3h2.5h2.5q35 0 51 -14.5t21 -32.5q3 -11 3.5 -21.5t0.5 -16.5v-1.5v-0.5v-171q0 -7 -1 -16.5t-4 -19.5q-6 -20 -26.5 -36t-66.5 -16h-150v0zM142 72h16
q13 0 22.5 8.5t9.5 23.5v156q0 25 -9.5 35t-20.5 12q-2 1 -4 1h-4h-2.5h-2.5t-2.5 -0.5t-2.5 -0.5v-235v0zM142 600v-236h1.5h1.5h0.5h1.5q19 0 28 9.5t12 20.5q2 7 2.5 14t0.5 11v153q0 14 -6.5 19.5t-13.5 7.5q-3 1 -6 1h-6h-16v0z" />
    <glyph glyph-name="quotedbl" unicode="&#x432;" horiz-adv-x="332" 
d="M42 0v672h151q45 0 70.5 -23.5t25.5 -63.5v-164q0 -33 -18.5 -49t-40.5 -21q-7 -2 -14 -2.5t-13 -0.5v-2h3h3h2.5h2.5q35 0 51 -14.5t21 -32.5q3 -11 3.5 -21.5t0.5 -16.5v-1.5v-0.5v-171q0 -7 -1 -16.5t-4 -19.5q-6 -20 -26.5 -36t-66.5 -16h-150v0zM142 72h16
q13 0 22.5 8.5t9.5 23.5v156q0 25 -9.5 35t-20.5 12q-2 1 -4 1h-4h-2.5h-2.5t-2.5 -0.5t-2.5 -0.5v-235v0zM142 600v-236h1.5h1.5h0.5h1.5q19 0 28 9.5t12 20.5q2 7 2.5 14t0.5 11v153q0 14 -6.5 19.5t-13.5 7.5q-3 1 -6 1h-6h-16v0z" />
    <glyph glyph-name="atilde" unicode="&#xe3;" horiz-adv-x="254" 
d="M42 0v672h212v-72h-112v-600h-100v0z" />
    <glyph glyph-name="atilde" unicode="&#x433;" horiz-adv-x="254" 
d="M42 0v672h212v-72h-112v-600h-100v0z" />
    <glyph glyph-name="adieresis" unicode="&#xe4;" horiz-adv-x="349" 
d="M114 0v-114h-100v186h29l54 600h155l54 -600h29v-186h-100v114h-121v0zM147 72h55l-27 528l-28 -528v0z" />
    <glyph glyph-name="adieresis" unicode="&#x434;" horiz-adv-x="349" 
d="M114 0v-114h-100v186h29l54 600h155l54 -600h29v-186h-100v114h-121v0zM147 72h55l-27 528l-28 -528v0z" />
    <glyph glyph-name="yright" unicode="&#xe5;" horiz-adv-x="318" 
d="M190 238h100v-153q0 -49 -18.5 -69t-40.5 -25q-9 -3 -18.5 -3.5t-17.5 -0.5l-62 -1q-7 1 -15 1.5t-17 2.5q-22 5 -40.5 24.5t-18.5 69.5v502q0 50 24 75t67 25h62q47 0 71 -28.5t24 -69.5v-284h-148v-226q0 -2 0.5 -4t0.5 -4q2 -4 6.5 -8t13.5 -4q13 0 20 6.5t7 13.5v160
v0zM142 368h48v225v2.5t-1 3.5q-2 5 -8 10t-18 5q-8 0 -12.5 -3.5t-6.5 -7.5q-1 -3 -1.5 -6t-0.5 -4v-225v0z" />
    <glyph glyph-name="yright" unicode="&#x435;" horiz-adv-x="318" 
d="M190 238h100v-153q0 -49 -18.5 -69t-40.5 -25q-9 -3 -18.5 -3.5t-17.5 -0.5l-62 -1q-7 1 -15 1.5t-17 2.5q-22 5 -40.5 24.5t-18.5 69.5v502q0 50 24 75t67 25h62q47 0 71 -28.5t24 -69.5v-284h-148v-226q0 -2 0.5 -4t0.5 -4q2 -4 6.5 -8t13.5 -4q13 0 20 6.5t7 13.5v160
v0zM142 368h48v225v2.5t-1 3.5q-2 5 -8 10t-18 5q-8 0 -12.5 -3.5t-6.5 -7.5q-1 -3 -1.5 -6t-0.5 -4v-225v0z" />
    <glyph glyph-name="guilsinglright" unicode="&#xe6;" horiz-adv-x="499" 
d="M199 0v296l-80 -296h-98l81 341l-61 331h104l54 -304v304h101v-313l54 313h104l-60 -331l80 -341h-98l-81 302v-302h-100v0z" />
    <glyph glyph-name="guilsinglright" unicode="&#x436;" horiz-adv-x="499" 
d="M199 0v296l-80 -296h-98l81 341l-61 331h104l54 -304v304h101v-313l54 313h104l-60 -331l80 -341h-98l-81 302v-302h-100v0z" />
    <glyph glyph-name="florin" unicode="&#xe7;" horiz-adv-x="318" 
d="M28 238h100v-153q0 -2 0.5 -5.5t1.5 -6.5q2 -6 7.5 -10.5t17.5 -4.5h1.5h1.5q6 1 12 6t6 21v174q0 4 -0.5 9t-1.5 10q-4 9 -13 17t-30 8h-34v67h34q24 0 33 10t11 23q1 4 1 9v9v0.5v0.5v169q0 9 -3.5 14t-7.5 7q-3 1 -5.5 1.5t-4.5 0.5q-13 0 -19.5 -6t-7.5 -12v-1.5
v-1.5v-131h-100v125q0 54 20.5 73.5t45.5 23.5q8 1 15.5 1.5t14.5 0.5h64q7 0 15 -0.5t15 -2.5q22 -5 40 -24.5t18 -69.5v-166q0 -7 -0.5 -15.5t-3.5 -17.5q-5 -14 -19.5 -27t-45.5 -17v-7q33 0 47.5 -14t18.5 -32q2 -9 2.5 -17.5t0.5 -15.5v-174q0 -53 -17.5 -72.5
t-38.5 -24.5q-9 -1 -17.5 -1.5t-15.5 -0.5l-63 -1q-49 1 -68.5 20t-24.5 42q-2 10 -2.5 19.5t-0.5 17.5v153v0z" />
    <glyph glyph-name="florin" unicode="&#x437;" horiz-adv-x="318" 
d="M28 238h100v-153q0 -2 0.5 -5.5t1.5 -6.5q2 -6 7.5 -10.5t17.5 -4.5h1.5h1.5q6 1 12 6t6 21v174q0 4 -0.5 9t-1.5 10q-4 9 -13 17t-30 8h-34v67h34q24 0 33 10t11 23q1 4 1 9v9v0.5v0.5v169q0 9 -3.5 14t-7.5 7q-3 1 -5.5 1.5t-4.5 0.5q-13 0 -19.5 -6t-7.5 -12v-1.5
v-1.5v-131h-100v125q0 54 20.5 73.5t45.5 23.5q8 1 15.5 1.5t14.5 0.5h64q7 0 15 -0.5t15 -2.5q22 -5 40 -24.5t18 -69.5v-166q0 -7 -0.5 -15.5t-3.5 -17.5q-5 -14 -19.5 -27t-45.5 -17v-7q33 0 47.5 -14t18.5 -32q2 -9 2.5 -17.5t0.5 -15.5v-174q0 -53 -17.5 -72.5
t-38.5 -24.5q-9 -1 -17.5 -1.5t-15.5 -0.5l-63 -1q-49 1 -68.5 20t-24.5 42q-2 10 -2.5 19.5t-0.5 17.5v153v0z" />
    <glyph glyph-name="comma" unicode="&#xe8;" horiz-adv-x="356" 
d="M42 0v672h100v-325l72 325h100v-672h-100v365l-72 -365h-100v0z" />
    <glyph glyph-name="comma" unicode="&#x438;" horiz-adv-x="356" 
d="M42 0v672h100v-325l72 325h100v-672h-100v365l-72 -365h-100v0z" />
    <glyph glyph-name="L" unicode="&#xe9;" horiz-adv-x="356" 
d="M42 0v672h100v-325l72 325h100v-672h-100v365l-72 -365h-100v0zM62 842h86v-61q0 -12 8.5 -21t21.5 -9t21.5 9t8.5 21v61h86v-62q0 -6 -0.5 -12t-2.5 -13q-4 -16 -19 -30t-52 -16q-5 0 -10.5 -0.5t-10.5 -0.5h-11.5h-10.5h-10h-10q-6 0 -11 0.5t-10 0.5q-40 3 -55 18
t-18 32q0 6 -0.5 11t-0.5 10v62v0z" />
    <glyph glyph-name="L" unicode="&#x439;" horiz-adv-x="356" 
d="M42 0v672h100v-325l72 325h100v-672h-100v365l-72 -365h-100v0zM62 842h86v-61q0 -12 8.5 -21t21.5 -9t21.5 9t8.5 21v61h86v-62q0 -6 -0.5 -12t-2.5 -13q-4 -16 -19 -30t-52 -16q-5 0 -10.5 -0.5t-10.5 -0.5h-11.5h-10.5h-10h-10q-6 0 -11 0.5t-10 0.5q-40 3 -55 18
t-18 32q0 6 -0.5 11t-0.5 10v62v0z" />
    <glyph glyph-name="asterisk" unicode="&#xea;" horiz-adv-x="340" 
d="M42 0v672h100v-300l53 300h102l-68 -325l90 -347h-105l-72 308v-308h-100v0z" />
    <glyph glyph-name="asterisk" unicode="&#x43a;" horiz-adv-x="340" 
d="M42 0v672h100v-300l53 300h102l-68 -325l90 -347h-105l-72 308v-308h-100v0z" />
    <glyph glyph-name="edieresis" unicode="&#xeb;" horiz-adv-x="349" 
d="M14 -14v76h1.5h0.5q17 0 25.5 7.5t12.5 17.5q1 4 2 8.5t1 7.5l64 569h161l46 -672h-108l-24 591h-6l-33 -505q0 -6 -1 -13l-2 -14q-6 -27 -27 -49.5t-76 -22.5l-37 -1v0z" />
    <glyph glyph-name="edieresis" unicode="&#x43b;" horiz-adv-x="349" 
d="M14 -14v76h1.5h0.5q17 0 25.5 7.5t12.5 17.5q1 4 2 8.5t1 7.5l64 569h161l46 -672h-108l-24 591h-6l-33 -505q0 -6 -1 -13l-2 -14q-6 -27 -27 -49.5t-76 -22.5l-37 -1v0z" />
    <glyph glyph-name="igrave" unicode="&#xec;" horiz-adv-x="498" 
d="M249 221l94 451h113v-672h-100v386l-67 -386h-80l-67 386v-386h-100v672h113l94 -451v0z" />
    <glyph glyph-name="igrave" unicode="&#x43c;" horiz-adv-x="498" 
d="M249 221l94 451h113v-672h-100v386l-67 -386h-80l-67 386v-386h-100v672h113l94 -451v0z" />
    <glyph glyph-name="ellipsis" unicode="&#xed;" horiz-adv-x="332" 
d="M42 0v672h100v-298h48v298h100v-672h-100v302h-48v-302h-100v0z" />
    <glyph glyph-name="ellipsis" unicode="&#x43d;" horiz-adv-x="332" 
d="M42 0v672h100v-298h48v298h100v-672h-100v302h-48v-302h-100v0z" />
    <glyph glyph-name="percent" unicode="&#xee;" horiz-adv-x="332" 
d="M42 89v487q0 9 1 22t5 28q6 22 25.5 41t61.5 19h62q41 0 60 -19t26 -41q5 -15 6 -28t1 -22v-487q0 -57 -20.5 -76.5t-45.5 -23.5q-7 -1 -14 -1.5t-14 -0.5l-61 -1q-6 1 -12 1t-13 1q-25 3 -46.5 22.5t-21.5 78.5v0zM142 591v-510q0 -9 5.5 -14.5t11.5 -7.5q2 0 3.5 -0.5
t3.5 -0.5t3.5 0.5t3.5 0.5q6 2 11.5 7.5t5.5 14.5v510q0 9 -5.5 14.5t-11.5 7.5q-2 0 -3.5 0.5t-3.5 0.5t-3.5 -0.5t-3.5 -0.5q-6 -2 -11.5 -7.5t-5.5 -14.5v0z" />
    <glyph glyph-name="percent" unicode="&#x43e;" horiz-adv-x="332" 
d="M42 89v487q0 9 1 22t5 28q6 22 25.5 41t61.5 19h62q41 0 60 -19t26 -41q5 -15 6 -28t1 -22v-487q0 -57 -20.5 -76.5t-45.5 -23.5q-7 -1 -14 -1.5t-14 -0.5l-61 -1q-6 1 -12 1t-13 1q-25 3 -46.5 22.5t-21.5 78.5v0zM142 591v-510q0 -9 5.5 -14.5t11.5 -7.5q2 0 3.5 -0.5
t3.5 -0.5t3.5 0.5t3.5 0.5q6 2 11.5 7.5t5.5 14.5v510q0 9 -5.5 14.5t-11.5 7.5q-2 0 -3.5 0.5t-3.5 0.5t-3.5 -0.5t-3.5 -0.5q-6 -2 -11.5 -7.5t-5.5 -14.5v0z" />
    <glyph glyph-name="C" unicode="&#xef;" horiz-adv-x="333" 
d="M42 0v672h249v-672h-100v600h-49v-600h-100v0z" />
    <glyph glyph-name="C" unicode="&#x43f;" horiz-adv-x="333" 
d="M42 0v672h249v-672h-100v600h-49v-600h-100v0z" />
    <glyph glyph-name="eth" unicode="&#xf0;" horiz-adv-x="332" 
d="M42 -214v886h100v-27q7 11 16.5 18.5t19.5 12.5q11 5 21 7.5t17 2.5q29 0 51.5 -20.5t22.5 -86.5v-488v-16t-1 -16q-3 -28 -17.5 -50t-55.5 -22q-21 0 -36.5 8.5t-26.5 19.5q-3 3 -6 6.5t-5 6.5v-242h-100v0zM142 592v-512q0 -9 6.5 -15.5t15.5 -6.5q10 0 18 7t8 15v512
q0 10 -7.5 16.5t-18.5 6.5q-9 0 -15.5 -6t-6.5 -17v0z" />
    <glyph glyph-name="eth" unicode="&#x440;" horiz-adv-x="332" 
d="M42 -214v886h100v-27q7 11 16.5 18.5t19.5 12.5q11 5 21 7.5t17 2.5q29 0 51.5 -20.5t22.5 -86.5v-488v-16t-1 -16q-3 -28 -17.5 -50t-55.5 -22q-21 0 -36.5 8.5t-26.5 19.5q-3 3 -6 6.5t-5 6.5v-242h-100v0zM142 592v-512q0 -9 6.5 -15.5t15.5 -6.5q10 0 18 7t8 15v512
q0 10 -7.5 16.5t-18.5 6.5q-9 0 -15.5 -6t-6.5 -17v0z" />
    <glyph glyph-name="quotedblleft" unicode="&#xf1;" horiz-adv-x="318" 
d="M190 238h100v-148q0 -71 -25 -86.5t-56 -16.5h-6h-6l-64 -1q-5 1 -9.5 1h-9.5q-27 2 -49.5 19.5t-22.5 82.5v489q0 70 23.5 88t52.5 20h7h7h65h11t11 -1q27 -2 49 -20.5t22 -83.5v-135h-100v146q0 10 -7 15.5t-15 6.5h-1.5h-1.5q-9 0 -16 -6t-7 -16v-512q0 -9 5 -14.5
t10 -7.5q2 0 4 -0.5t4 -0.5h1.5h1.5q8 1 15 6.5t7 16.5v158v0z" />
    <glyph glyph-name="quotedblleft" unicode="&#x441;" horiz-adv-x="318" 
d="M190 238h100v-148q0 -71 -25 -86.5t-56 -16.5h-6h-6l-64 -1q-5 1 -9.5 1h-9.5q-27 2 -49.5 19.5t-22.5 82.5v489q0 70 23.5 88t52.5 20h7h7h65h11t11 -1q27 -2 49 -20.5t22 -83.5v-135h-100v146q0 10 -7 15.5t-15 6.5h-1.5h-1.5q-9 0 -16 -6t-7 -16v-512q0 -9 5 -14.5
t10 -7.5q2 0 4 -0.5t4 -0.5h1.5h1.5q8 1 15 6.5t7 16.5v158v0z" />
    <glyph glyph-name="two" unicode="&#xf2;" horiz-adv-x="294" 
d="M97 0v600h-83v72h266v-72h-83v-600h-100v0z" />
    <glyph glyph-name="two" unicode="&#x442;" horiz-adv-x="294" 
d="M97 0v600h-83v72h266v-72h-83v-600h-100v0z" />
    <glyph glyph-name="three" unicode="&#xf3;" horiz-adv-x="332" 
d="M290 672v-745q0 -10 -0.5 -22.5t-1.5 -25.5q-4 -35 -23 -64t-70 -29l-51 -1q-7 1 -14 1.5t-14 2.5q-25 5 -46.5 28t-20.5 83v4v4v4v4l93 -1v-49q0 -7 6.5 -12.5t14.5 -6.5q1 -1 3 -1h3q8 0 14.5 6.5t6.5 14.5v153q-18 -18 -38 -25.5t-44 -7.5q-34 0 -47.5 19.5
t-16.5 43.5q-1 7 -1.5 14t-0.5 13v595h100v-590q0 -11 4 -16t9 -6q3 -2 6 -2h5h5t6 2q5 1 9 6t4 16v590h100v0z" />
    <glyph glyph-name="three" unicode="&#x443;" horiz-adv-x="332" 
d="M290 672v-745q0 -10 -0.5 -22.5t-1.5 -25.5q-4 -35 -23 -64t-70 -29l-51 -1q-7 1 -14 1.5t-14 2.5q-25 5 -46.5 28t-20.5 83v4v4v4v4l93 -1v-49q0 -7 6.5 -12.5t14.5 -6.5q1 -1 3 -1h3q8 0 14.5 6.5t6.5 14.5v153q-18 -18 -38 -25.5t-44 -7.5q-34 0 -47.5 19.5
t-16.5 43.5q-1 7 -1.5 14t-0.5 13v595h100v-590q0 -11 4 -16t9 -6q3 -2 6 -2h5h5t6 2q5 1 9 6t4 16v590h100v0z" />
    <glyph glyph-name="ocircumflex" unicode="&#xf4;" horiz-adv-x="481" 
d="M191 -214v229q-25 -17 -45 -22.5t-39 -5.5q-36 0 -49 23t-15 51q-1 7 -1 14v14v494q0 8 0.5 20t3.5 25q4 22 19 40t49 18q5 0 10 -0.5t10 -1.5q16 -4 32 -13.5t25 -19.5v48h100v-48q13 15 34 25t45 10q43 0 55.5 -28.5t13.5 -61.5v-7v-6v-494v-1.5v-1.5q0 -8 -0.5 -19
t-1.5 -22q-4 -22 -17.5 -40t-45.5 -18q-19 0 -35.5 5t-27.5 11q-7 3 -12 6.5l-8 5.5v-229h-100v0zM142 579v-494q0 -9 5.5 -14.5t11.5 -7.5q2 0 3.5 -0.5t3.5 -0.5t4.5 0.5t5.5 1.5q5 2 10 7t5 13v495q0 8 -5 13t-10 7q-3 1 -5.5 1.5t-4.5 0.5t-3.5 -0.5t-3.5 -0.5
q-6 -2 -11.5 -7.5t-5.5 -13.5v0zM291 579v-495q0 -10 7 -15.5t15 -6.5h1.5h1.5q9 0 16 6t7 16v495q0 10 -7 16t-16 6h-1.5h-1.5q-8 -1 -15 -6.5t-7 -15.5v0z" />
    <glyph glyph-name="ocircumflex" unicode="&#x444;" horiz-adv-x="481" 
d="M191 -214v229q-25 -17 -45 -22.5t-39 -5.5q-36 0 -49 23t-15 51q-1 7 -1 14v14v494q0 8 0.5 20t3.5 25q4 22 19 40t49 18q5 0 10 -0.5t10 -1.5q16 -4 32 -13.5t25 -19.5v48h100v-48q13 15 34 25t45 10q43 0 55.5 -28.5t13.5 -61.5v-7v-6v-494v-1.5v-1.5q0 -8 -0.5 -19
t-1.5 -22q-4 -22 -17.5 -40t-45.5 -18q-19 0 -35.5 5t-27.5 11q-7 3 -12 6.5l-8 5.5v-229h-100v0zM142 579v-494q0 -9 5.5 -14.5t11.5 -7.5q2 0 3.5 -0.5t3.5 -0.5t4.5 0.5t5.5 1.5q5 2 10 7t5 13v495q0 8 -5 13t-10 7q-3 1 -5.5 1.5t-4.5 0.5t-3.5 -0.5t-3.5 -0.5
q-6 -2 -11.5 -7.5t-5.5 -13.5v0zM291 579v-495q0 -10 7 -15.5t15 -6.5h1.5h1.5q9 0 16 6t7 16v495q0 10 -7 16t-16 6h-1.5h-1.5q-8 -1 -15 -6.5t-7 -15.5v0z" />
    <glyph glyph-name="otilde" unicode="&#xf5;" horiz-adv-x="335" 
d="M21 0l54 353l-54 319h106l34 -286l33 286h103l-48 -319l65 -353h-107l-46 298l-36 -298h-104v0z" />
    <glyph glyph-name="otilde" unicode="&#x445;" horiz-adv-x="335" 
d="M21 0l54 353l-54 319h106l34 -286l33 286h103l-48 -319l65 -353h-107l-46 298l-36 -298h-104v0z" />
    <glyph glyph-name="odieresis" unicode="&#xf6;" horiz-adv-x="335" 
d="M290 672v-600h31v-211h-100v139h-179v672h100v-600h48v600h100v0z" />
    <glyph glyph-name="odieresis" unicode="&#x446;" horiz-adv-x="335" 
d="M290 672v-600h31v-211h-100v139h-179v672h100v-600h48v600h100v0z" />
    <glyph glyph-name="divide" unicode="&#xf7;" horiz-adv-x="317" 
d="M175 0v307q-4 -3 -8 -6.5l-9 -7.5q-13 -10 -30 -18.5t-35 -8.5q-5 0 -11.5 1t-13.5 4q-15 5 -27.5 23t-12.5 56v322h100v-306q0 -9 6.5 -15.5t15.5 -6.5q2 0 4 0.5t4 0.5q6 2 11.5 7.5t5.5 13.5v306h100v-672h-100v0z" />
    <glyph glyph-name="divide" unicode="&#x447;" horiz-adv-x="317" 
d="M175 0v307q-4 -3 -8 -6.5l-9 -7.5q-13 -10 -30 -18.5t-35 -8.5q-5 0 -11.5 1t-13.5 4q-15 5 -27.5 23t-12.5 56v322h100v-306q0 -9 6.5 -15.5t15.5 -6.5q2 0 4 0.5t4 0.5q6 2 11.5 7.5t5.5 13.5v306h100v-672h-100v0z" />
    <glyph glyph-name="oslash" unicode="&#xf8;" horiz-adv-x="480" 
d="M42 0v672h100v-600h48v600h100v-600h48v600h100v-672h-396v0z" />
    <glyph glyph-name="oslash" unicode="&#x448;" horiz-adv-x="480" 
d="M42 0v672h100v-600h48v600h100v-600h48v600h100v-672h-396v0z" />
    <glyph glyph-name="question" unicode="&#xf9;" horiz-adv-x="482" 
d="M368 -142v142h-326v672h100v-600h48v600h100v-600h48v600h100v-600h30v-214h-100v0z" />
    <glyph glyph-name="question" unicode="&#x449;" horiz-adv-x="482" 
d="M368 -142v142h-326v672h100v-600h48v600h100v-600h48v600h100v-600h30v-214h-100v0z" />
    <glyph glyph-name="A" unicode="&#xfa;" horiz-adv-x="369" 
d="M93 0v600h-79v72h179v-278h55q8 0 18 -0.5t20 -3.5q21 -5 38 -24.5t17 -65.5v-212q0 -42 -16 -60.5t-36 -23.5q-10 -3 -20.5 -3.5t-17.5 -0.5h-1.5h-1.5h-155v0zM193 72h17q15 0 21.5 7.5t8.5 16.5q1 5 1 10v8v168q0 3 -0.5 8t-1.5 10q-2 8 -8.5 15t-19.5 7h-18v-250v0z
" />
    <glyph glyph-name="A" unicode="&#x44a;" horiz-adv-x="369" 
d="M93 0v600h-79v72h179v-278h55q8 0 18 -0.5t20 -3.5q21 -5 38 -24.5t17 -65.5v-212q0 -42 -16 -60.5t-36 -23.5q-10 -3 -20.5 -3.5t-17.5 -0.5h-1.5h-1.5h-155v0zM193 72h17q15 0 21.5 7.5t8.5 16.5q1 5 1 10v8v168q0 3 -0.5 8t-1.5 10q-2 8 -8.5 15t-19.5 7h-18v-250v0z
" />
    <glyph glyph-name="slash" unicode="&#xfb;" horiz-adv-x="472" 
d="M42 0v672h100v-278h56q8 0 17 -0.5t18 -2.5q21 -5 39 -24t18 -67v-212q0 -43 -16 -61t-36 -23q-10 -3 -20 -3.5t-17 -0.5h-1.5h-1.5h-156v0zM142 72h18q19 0 24 10.5t6 22.5v5v4v168v5.5v5.5q-1 11 -6.5 20t-22.5 9h-19v-250v0zM330 0v672h100v-672h-100v0z" />
    <glyph glyph-name="slash" unicode="&#x44b;" horiz-adv-x="472" 
d="M42 0v672h100v-278h56q8 0 17 -0.5t18 -2.5q21 -5 39 -24t18 -67v-212q0 -43 -16 -61t-36 -23q-10 -3 -20 -3.5t-17 -0.5h-1.5h-1.5h-156v0zM142 72h18q19 0 24 10.5t6 22.5v5v4v168v5.5v5.5q-1 11 -6.5 20t-22.5 9h-19v-250v0zM330 0v672h100v-672h-100v0z" />
    <glyph glyph-name="udieresis" unicode="&#xfc;" horiz-adv-x="318" 
d="M42 0v672h100v-278h56q8 0 17 -0.5t18 -2.5q21 -5 39 -24t18 -67v-212q0 -43 -16 -61t-36 -23q-10 -3 -20 -3.5t-17 -0.5h-1.5h-1.5h-156v0zM142 72h18q19 0 24 10.5t6 22.5v5v4v168q0 3 -0.5 8t-1.5 10q-2 8 -8.5 15t-19.5 7h-18v-250v0z" />
    <glyph glyph-name="udieresis" unicode="&#x44c;" horiz-adv-x="318" 
d="M42 0v672h100v-278h56q8 0 17 -0.5t18 -2.5q21 -5 39 -24t18 -67v-212q0 -43 -16 -61t-36 -23q-10 -3 -20 -3.5t-17 -0.5h-1.5h-1.5h-156v0zM142 72h18q19 0 24 10.5t6 22.5v5v4v168q0 3 -0.5 8t-1.5 10q-2 8 -8.5 15t-19.5 7h-18v-250v0z" />
    <glyph glyph-name="period" unicode="&#xfd;" horiz-adv-x="318" 
d="M28 238h100v-157q0 -11 7 -16.5t15 -6.5h1.5h1.5q2 0 4 0.5t4 0.5q5 2 10 7.5t5 14.5v223h-87v68h87v220q0 9 -5.5 14t-11.5 7q-2 0 -3.5 0.5t-3.5 0.5t-3.5 -0.5t-3.5 -0.5q-6 -2 -11.5 -7t-5.5 -14v-130h-100v113q0 9 0.5 21.5t3.5 26.5q6 23 25 43t63 20h67
q43 0 61 -19.5t24 -42.5q3 -13 3.5 -25.5t0.5 -21.5v-490q0 -56 -17.5 -75t-38.5 -23q-8 -2 -15.5 -2h-13.5h-2h-2l-67 -1q0 1 -0.5 1h-0.5q-7 0 -16 0.5t-18 2.5q-21 4 -39 23.5t-18 72.5v152v0z" />
    <glyph glyph-name="period" unicode="&#x44d;" horiz-adv-x="318" 
d="M28 238h100v-157q0 -11 7 -16.5t15 -6.5h1.5h1.5q2 0 4 0.5t4 0.5q5 2 10 7.5t5 14.5v223h-87v68h87v220q0 9 -5.5 14t-11.5 7q-2 0 -3.5 0.5t-3.5 0.5t-3.5 -0.5t-3.5 -0.5q-6 -2 -11.5 -7t-5.5 -14v-130h-100v113q0 9 0.5 21.5t3.5 26.5q6 23 25 43t63 20h67
q43 0 61 -19.5t24 -42.5q3 -13 3.5 -25.5t0.5 -21.5v-490q0 -56 -17.5 -75t-38.5 -23q-8 -2 -15.5 -2h-13.5h-2h-2l-67 -1q0 1 -0.5 1h-0.5q-7 0 -16 0.5t-18 2.5q-21 4 -39 23.5t-18 72.5v152v0z" />
    <glyph glyph-name="thorn" unicode="&#xfe;" horiz-adv-x="481" 
d="M191 302h-49v-302h-100v672h100v-298h49v202q0 9 1 22t6 28q7 22 26.5 41t60.5 19h60q41 0 60.5 -19t26.5 -41q5 -15 6 -28t1 -22v-487q0 -57 -20.5 -76.5t-45.5 -23.5q-7 -1 -14 -1.5t-14 -0.5l-60 -1q-7 1 -14 1.5t-14 1.5q-25 4 -45.5 23.5t-20.5 76.5v213v0zM291 591
v-510q0 -9 5.5 -14.5t11.5 -7.5q2 0 3.5 -0.5t3.5 -0.5t3.5 0.5t3.5 0.5q6 2 11.5 7.5t5.5 14.5v510q0 9 -5.5 14.5t-11.5 7.5q-2 0 -3.5 0.5t-3.5 0.5t-3.5 -0.5t-3.5 -0.5q-6 -2 -11.5 -7.5t-5.5 -14.5v0z" />
    <glyph glyph-name="thorn" unicode="&#x44e;" horiz-adv-x="481" 
d="M191 302h-49v-302h-100v672h100v-298h49v202q0 9 1 22t6 28q7 22 26.5 41t60.5 19h60q41 0 60.5 -19t26.5 -41q5 -15 6 -28t1 -22v-487q0 -57 -20.5 -76.5t-45.5 -23.5q-7 -1 -14 -1.5t-14 -0.5l-60 -1q-7 1 -14 1.5t-14 1.5q-25 4 -45.5 23.5t-20.5 76.5v213v0zM291 591
v-510q0 -9 5.5 -14.5t11.5 -7.5q2 0 3.5 -0.5t3.5 -0.5t3.5 0.5t3.5 0.5q6 2 11.5 7.5t5.5 14.5v510q0 9 -5.5 14.5t-11.5 7.5q-2 0 -3.5 0.5t-3.5 0.5t-3.5 -0.5t-3.5 -0.5q-6 -2 -11.5 -7.5t-5.5 -14.5v0z" />
    <glyph glyph-name="ydieresis" unicode="&#xff;" horiz-adv-x="306" 
d="M14 0l63 274q-25 5 -37.5 18.5t-17.5 28.5q-5 12 -5.5 23.5t-0.5 18.5v203v8.5v9.5q0 7 0.5 14t1.5 15q5 22 23.5 40.5t65.5 18.5h157v-672h-100v274l-53 -274h-97v0zM164 600h-19q-13 0 -19 -7t-8 -16q-2 -5 -2 -10.5v-8.5v-190q0 -21 8 -31t18 -11h1.5h1.5h19v274v0z
" />
    <glyph glyph-name="ydieresis" unicode="&#x44f;" horiz-adv-x="306" 
d="M14 0l63 274q-25 5 -37.5 18.5t-17.5 28.5q-5 12 -5.5 23.5t-0.5 18.5v203v8.5v9.5q0 7 0.5 14t1.5 15q5 22 23.5 40.5t65.5 18.5h157v-672h-100v274l-53 -274h-97v0zM164 600h-19q-13 0 -19 -7t-8 -16q-2 -5 -2 -10.5v-8.5v-190q0 -21 8 -31t18 -11h1.5h1.5h19v274v0z
" />
    <glyph glyph-name="amacron" unicode="&#x101;" 
 />
    <glyph glyph-name="OE" unicode="&#x152;" 
 />
    <glyph glyph-name="glyph258" unicode="&#x153;" 
 />
    <glyph glyph-name="perthousand" unicode="&#x160;" 
 />
    <glyph glyph-name="seven" unicode="&#x161;" 
 />
    <glyph glyph-name="glyph259" unicode="&#x178;" 
 />
    <glyph glyph-name="less" unicode="&#x192;" horiz-adv-x="254" 
d="M42 0v672h212v-72h-112v-600h-100v0z" />
    <glyph glyph-name="glyph237" unicode="&#x2c6;" 
 />
    <glyph glyph-name="six" unicode="&#x2dc;" 
 />
    <glyph glyph-name="numbersign" unicode="&#x2013;" horiz-adv-x="576" 
d="M42 385v76h492v-76h-492v0z" />
    <glyph glyph-name="O" unicode="&#x2014;" horiz-adv-x="410" 
d="M28 339v77h354v-77h-354v0z" />
    <glyph glyph-name="four" unicode="&#x2018;" horiz-adv-x="202" 
d="M42 634v114q0 10 1.5 20t4.5 21q4 16 12 32.5t20 30.5h80q-4 -4 -9 -10t-11 -14q-9 -13 -16.5 -32.5t-9.5 -47.5h42v-114h-114v0z" />
    <glyph glyph-name="quoteright" unicode="&#x2019;" horiz-adv-x="202" 
d="M160 852v-114q0 -6 -0.5 -11.5t-0.5 -11.5q-3 -18 -11 -37.5t-25 -43.5h-81q4 4 9.5 10t10.5 15q8 13 15.5 32.5t10.5 46.5h-42v114h114v0z" />
    <glyph glyph-name="parenleft" unicode="&#x201a;" horiz-adv-x="203" 
d="M47 0v114h114v-114q0 -11 -2.5 -25.5t-8.5 -29.5q-4 -13 -10.5 -25t-15.5 -23l-82 -1q4 5 9 10t10 13q10 13 18 33t9 48h-41v0z" />
    <glyph glyph-name="oe" unicode="&#x201c;" horiz-adv-x="396" 
d="M42 634v114q0 10 1.5 20t4.5 21q4 16 12 32.5t20 30.5h81q-14 -14 -23.5 -30t-14.5 -32q-4 -11 -6 -21.5t-3 -20.5h42v-114h-114v0zM234 634v114q0 11 2 24t6 26q4 14 11.5 28t18.5 26h82l-6.5 -6.5l-7.5 -7.5q-11 -13 -20.5 -34.5t-12.5 -55.5h42v-114h-115v0z" />
    <glyph glyph-name="B" unicode="&#x201d;" horiz-adv-x="396" 
d="M162 852v-114q0 -13 -3 -28.5t-9 -30.5q-5 -12 -11 -23.5t-15 -21.5h-82l6.5 6.5t6.5 7.5q11 13 21 34.5t13 55.5h-42v114h115v0zM354 852v-114q0 -7 -5 -37.5t-33 -66.5h-81q21 21 33 48t14 56h-42v114h114v0z" />
    <glyph glyph-name="greater" unicode="&#x201e;" horiz-adv-x="396" 
d="M161 115v-115q0 -11 -5.5 -39t-30.5 -64l-83 -1q4 4 8 8.5t8 9.5q10 14 19 35t11 51h-41v115h114v0zM354 115v-115q0 -19 -7 -44t-30 -59l-84 -1q4 4 8 8.5t8 9.5q11 14 20 35t11 51h-41v115h115v0z" />
    <glyph glyph-name="glyph233" unicode="&#x2020;" horiz-adv-x="560" 
d="M224 -210v560h-182v112h182v207h112v-207h182v-112h-182v-560h-112v0z" />
    <glyph glyph-name="glyph236" unicode="&#x2021;" horiz-adv-x="401" 
d="M280 0h-112v-21h-119v529h-35v77h36v136q0 11 0.5 23.5t3.5 25.5q6 32 27.5 58t74.5 26h97v-76h-44h-8t-11 -2q-8 -2 -15 -7.5t-7 -17.5v-166h90v-77h-90v-432h71q11 0 20 7t9 20v25h119v-3v-0.5v-1.5q0 -8 -1 -24.5t-6 -34.5q-8 -25 -27 -44.5t-59 -19.5h-3h-4h-3h-4v0z
" />
    <glyph glyph-name="glyph257" unicode="&#x2022;" horiz-adv-x="560" 
d="M182 432q0 41 29 69.5t69 28.5q41 0 69.5 -29t28.5 -69q0 -38 -29 -68t-69 -30t-69 29t-29 69v0z" />
    <glyph glyph-name="glyph232" unicode="&#x2026;" horiz-adv-x="658" 
d="M42 0v114h114v-114h-114v0zM271 0v114h115v-114h-115v0zM501 0v114h115v-114h-115v0z" />
    <glyph glyph-name="v" unicode="&#x2030;" horiz-adv-x="901" 
d="M475 -14h-65q-59 1 -73 23.5t-15 50.5v7v7v163q0 7 0.5 14.5t1.5 14.5q3 25 20.5 45.5t65.5 20.5h65q40 0 58 -16.5t24 -35.5q4 -13 5 -24.5t1 -18.5v-163q0 -47 -17 -64t-38 -21q-8 -2 -16 -2h-15h-0.5h-1.5v-1zM418 246v-180q0 -9 6 -16t14 -8q1 -1 2 -1h2q2 0 5 0.5
t6 2.5q5 2 9.5 7.5t4.5 14.5v180q0 10 -7 17t-15 8h-1.5h-1.5q-2 0 -3.5 -0.5t-3.5 -0.5q-6 -3 -11.5 -9t-5.5 -15v0zM771 -14h-65q-59 1 -73 23.5t-15 50.5v7v7v163q0 7 0.5 14.5t1.5 14.5q3 25 20.5 45.5t65.5 20.5h65q40 0 58 -16.5t24 -35.5q4 -13 5 -24.5t1 -18.5v-163
q0 -46 -17 -63.5t-37 -21.5q-8 -1 -16.5 -1.5t-15.5 -0.5h-1h-1v-1zM714 246v-180q0 -9 6 -16t14 -8q1 -1 2 -1h2q2 0 5 0.5t6 2.5q5 2 9.5 7.5t4.5 14.5v180q0 10 -7 17t-15 8h-1.5h-1.5q-2 0 -3.5 -0.5t-3.5 -0.5q-6 -3 -11.5 -9t-5.5 -15v0zM65 1l367 839l109 -1
l-367 -838h-109v0zM196 502h-66h-0.5h-0.5h-10.5t-11.5 1q-24 1 -44.5 17.5t-20.5 70.5v162v13t1 14q3 26 19.5 47t67.5 21h66q39 0 57 -16t24 -36q4 -12 5 -24t1 -19v-163q0 -46 -16.5 -63.5t-37.5 -22.5q-8 -1 -16.5 -1.5t-15.5 -0.5h-0.5h-0.5v0zM138 762v-180
q0 -10 6 -16.5t14 -7.5q1 -1 2 -1h2h1.5h1.5q6 1 12.5 6.5t8.5 12.5q0 2 0.5 3.5t0.5 2.5v180q0 10 -7 17t-15 8h-1.5h-1.5h-2t-2 -1q-8 -1 -14 -7.5t-6 -16.5v0z" />
    <glyph glyph-name="glyph243" unicode="&#x2039;" horiz-adv-x="232" 
d="M94 93l-52 237l52 262h96l-53 -252l53 -247h-96v0z" />
    <glyph glyph-name="eight" unicode="&#x203a;" horiz-adv-x="232" 
d="M137 93h-95l53 247l-53 252h95l53 -262l-53 -237v0z" />
    <glyph glyph-name="dollar" unicode="&#x2122;" horiz-adv-x="542" 
d="M94 420v381h-45v39h150v-39h-45v-381h-60v0zM230 420v420h87l44 -283l49 283h83v-420h-60v261l-38 -261h-64l-41 261v-261h-60v0z" />
    <glyph glyph-name="periodcentered" unicode="&#x2219;" horiz-adv-x="199" 
d="M42 383v114h115v-114h-115v0z" />
    <glyph glyph-name="s" 
 />
    <glyph glyph-name="backslash" 
 />
    <glyph glyph-name="nine" 
 />
    <glyph glyph-name="colon" 
 />
    <glyph glyph-name="Y" 
 />
    <glyph glyph-name="X" 
 />
    <glyph glyph-name="asciicircum" 
 />
    <glyph glyph-name="semicolon" 
 />
    <glyph glyph-name="equal" 
 />
    <glyph glyph-name="exclam" 
 />
    <glyph glyph-name="five" 
 />
    <glyph glyph-name="Q" 
 />
    <glyph glyph-name="quotedblright" 
 />
    <glyph glyph-name="hyphen" 
 />
    <glyph glyph-name="space" 
 />
    <glyph glyph-name="E" 
 />
    <glyph glyph-name="M" 
 />
    <glyph glyph-name="plus" 
 />
    <glyph glyph-name="glyph229" 
 />
    <glyph glyph-name="glyph230" 
 />
    <glyph glyph-name="glyph231" 
 />
    <glyph glyph-name="glyph234" 
 />
    <glyph glyph-name="glyph235" 
 />
    <glyph glyph-name="glyph238" 
 />
    <glyph glyph-name="glyph239" 
 />
    <glyph glyph-name="glyph240" 
 />
    <glyph glyph-name="glyph241" 
 />
    <glyph glyph-name="glyph242" 
 />
    <glyph glyph-name="glyph244" 
 />
    <glyph glyph-name="glyph245" 
 />
    <glyph glyph-name="glyph246" 
 />
    <glyph glyph-name="glyph247" 
 />
    <glyph glyph-name="glyph248" 
 />
    <glyph glyph-name="glyph249" 
 />
    <glyph glyph-name="glyph250" 
 />
    <glyph glyph-name="glyph251" 
 />
    <glyph glyph-name="glyph252" 
 />
    <glyph glyph-name="glyph253" 
 />
    <glyph glyph-name="glyph254" 
 />
    <glyph glyph-name="glyph255" 
 />
    <glyph glyph-name="glyph256" 
 />
    <glyph glyph-name="glyph268" 
 />
    <glyph glyph-name="glyph269" 
 />
    <glyph glyph-name="glyph270" 
 />
    <glyph glyph-name="glyph271" 
 />
    <glyph glyph-name="glyph272" 
 />
    <glyph glyph-name="glyph273" 
 />
    <glyph glyph-name="glyph274" 
 />
    <glyph glyph-name="glyph275" 
 />
    <glyph glyph-name="glyph276" 
 />
    <glyph glyph-name="glyph277" 
 />
    <glyph glyph-name="glyph278" 
 />
    <glyph glyph-name="glyph279" 
 />
    <glyph glyph-name="glyph280" 
 />
    <glyph glyph-name="glyph281" 
 />
    <glyph glyph-name="glyph282" 
 />
    <glyph glyph-name="glyph283" 
 />
    <glyph glyph-name="glyph284" 
 />
    <glyph glyph-name="glyph285" 
 />
    <glyph glyph-name="glyph286" 
 />
    <glyph glyph-name="glyph287" 
 />
    <glyph glyph-name="glyph288" 
 />
    <glyph glyph-name="glyph289" 
 />
    <glyph glyph-name="glyph290" 
 />
    <glyph glyph-name="glyph291" 
 />
    <glyph glyph-name="glyph292" 
 />
    <glyph glyph-name="glyph293" 
 />
    <glyph glyph-name="glyph294" 
 />
    <glyph glyph-name="glyph295" 
 />
    <glyph glyph-name="glyph296" 
 />
    <glyph glyph-name="glyph297" 
 />
    <glyph glyph-name="glyph298" 
 />
    <glyph glyph-name="glyph299" 
 />
    <glyph glyph-name="glyph300" 
 />
    <glyph glyph-name="glyph301" 
 />
    <glyph glyph-name="glyph302" 
 />
    <glyph glyph-name="glyph303" 
 />
    <glyph glyph-name="glyph304" 
 />
    <glyph glyph-name="glyph305" 
 />
    <glyph glyph-name="glyph306" 
 />
    <glyph glyph-name="glyph307" 
 />
    <glyph glyph-name="glyph308" 
 />
    <glyph glyph-name="glyph309" 
 />
    <glyph glyph-name="glyph310" 
 />
    <glyph glyph-name="glyph311" 
 />
    <glyph glyph-name="glyph312" 
 />
    <glyph glyph-name="glyph313" 
 />
    <glyph glyph-name="glyph314" 
 />
    <glyph glyph-name="glyph315" 
 />
    <glyph glyph-name="glyph316" 
 />
    <glyph glyph-name="glyph317" 
 />
    <glyph glyph-name="glyph318" 
 />
    <glyph glyph-name="glyph319" 
 />
    <glyph glyph-name="glyph320" 
 />
    <glyph glyph-name="glyph321" 
 />
    <glyph glyph-name="glyph322" 
 />
    <glyph glyph-name="glyph323" 
 />
    <glyph glyph-name="glyph324" 
 />
    <glyph glyph-name="glyph325" 
 />
    <glyph glyph-name="glyph326" 
 />
    <glyph glyph-name="glyph327" 
 />
    <glyph glyph-name="glyph328" 
 />
    <glyph glyph-name="glyph329" 
 />
    <glyph glyph-name="glyph330" 
 />
    <glyph glyph-name="glyph331" 
 />
    <glyph glyph-name="glyph332" 
 />
    <glyph glyph-name="glyph333" 
 />
    <glyph glyph-name="glyph334" 
 />
    <glyph glyph-name="glyph335" 
 />
    <glyph glyph-name="glyph336" 
 />
    <glyph glyph-name="glyph337" 
 />
    <glyph glyph-name="glyph338" 
 />
    <glyph glyph-name="glyph339" 
 />
    <glyph glyph-name="glyph340" 
 />
    <glyph glyph-name="glyph341" 
 />
    <glyph glyph-name="glyph342" 
 />
    <glyph glyph-name="glyph343" 
 />
    <glyph glyph-name="glyph344" 
 />
    <glyph glyph-name="glyph345" 
 />
    <glyph glyph-name="glyph346" 
 />
    <glyph glyph-name="glyph347" 
 />
    <glyph glyph-name="glyph348" 
 />
    <glyph glyph-name="glyph349" 
 />
    <glyph glyph-name="glyph350" 
 />
    <glyph glyph-name="glyph351" 
 />
    <glyph glyph-name="glyph352" 
 />
    <glyph glyph-name="glyph353" 
 />
    <glyph glyph-name="glyph354" 
 />
    <glyph glyph-name="glyph355" 
 />
    <glyph glyph-name="glyph356" 
 />
    <glyph glyph-name="glyph357" 
 />
    <glyph glyph-name="glyph358" 
 />
    <glyph glyph-name="glyph359" 
 />
    <glyph glyph-name="glyph360" 
 />
    <glyph glyph-name="glyph361" 
 />
    <glyph glyph-name="glyph362" 
 />
    <glyph glyph-name="glyph363" 
 />
    <glyph glyph-name="glyph364" 
 />
    <glyph glyph-name="glyph365" 
 />
    <glyph glyph-name="glyph366" 
 />
    <glyph glyph-name="glyph367" 
 />
    <glyph glyph-name="glyph368" 
 />
    <glyph glyph-name="glyph369" 
 />
    <glyph glyph-name="glyph370" 
 />
    <glyph glyph-name="glyph371" 
 />
    <glyph glyph-name="glyph372" 
 />
    <glyph glyph-name="glyph373" 
 />
    <glyph glyph-name="glyph374" 
 />
    <glyph glyph-name="glyph375" 
 />
    <glyph glyph-name="glyph376" 
 />
    <glyph glyph-name="glyph377" 
 />
    <glyph glyph-name="glyph378" 
 />
    <glyph glyph-name="glyph379" 
 />
    <glyph glyph-name="glyph380" 
 />
    <glyph glyph-name="glyph381" 
 />
    <glyph glyph-name="glyph382" 
 />
    <glyph glyph-name="glyph383" 
 />
    <glyph glyph-name="glyph384" 
 />
    <glyph glyph-name="glyph385" 
 />
    <glyph glyph-name="glyph386" 
 />
    <glyph glyph-name="glyph387" 
 />
    <glyph glyph-name="glyph388" 
 />
    <glyph glyph-name="glyph389" 
 />
    <glyph glyph-name="glyph390" 
 />
    <glyph glyph-name="glyph391" 
 />
    <glyph glyph-name="glyph392" 
 />
    <glyph glyph-name="glyph393" 
 />
    <glyph glyph-name="glyph394" 
 />
    <glyph glyph-name="glyph395" 
 />
    <glyph glyph-name="glyph396" 
 />
    <glyph glyph-name="glyph397" 
 />
    <glyph glyph-name="glyph398" 
 />
    <glyph glyph-name="glyph399" 
 />
    <glyph glyph-name="glyph400" 
 />
    <glyph glyph-name="glyph401" 
 />
    <glyph glyph-name="glyph402" 
 />
    <glyph glyph-name="glyph403" 
 />
    <glyph glyph-name="glyph404" 
 />
    <glyph glyph-name="glyph405" 
 />
    <glyph glyph-name="glyph406" 
 />
    <glyph glyph-name="glyph407" 
 />
    <glyph glyph-name="glyph408" 
 />
    <glyph glyph-name="glyph409" 
 />
    <glyph glyph-name="glyph410" 
 />
    <glyph glyph-name="glyph411" 
 />
    <glyph glyph-name="glyph412" 
 />
    <glyph glyph-name="glyph413" 
 />
    <glyph glyph-name="glyph414" 
 />
    <glyph glyph-name="glyph415" 
 />
    <glyph glyph-name="glyph416" 
 />
    <glyph glyph-name="glyph417" 
 />
    <glyph glyph-name="glyph418" 
 />
    <glyph glyph-name="glyph419" 
 />
    <glyph glyph-name="glyph420" 
 />
    <glyph glyph-name="glyph421" 
 />
    <glyph glyph-name="glyph422" 
 />
    <glyph glyph-name="glyph423" 
 />
    <glyph glyph-name="glyph424" 
 />
    <glyph glyph-name="glyph425" 
 />
    <glyph glyph-name="glyph426" 
 />
    <glyph glyph-name="glyph427" 
 />
    <glyph glyph-name="glyph428" 
 />
    <glyph glyph-name="glyph429" 
 />
    <glyph glyph-name="glyph430" 
 />
    <glyph glyph-name="glyph431" 
 />
    <glyph glyph-name="glyph432" 
 />
    <glyph glyph-name="glyph433" 
 />
    <glyph glyph-name="glyph434" 
 />
    <glyph glyph-name="glyph435" 
 />
    <glyph glyph-name="glyph436" 
 />
    <glyph glyph-name="glyph437" 
 />
    <glyph glyph-name="glyph438" 
 />
    <glyph glyph-name="glyph439" 
 />
    <glyph glyph-name="glyph440" 
 />
    <glyph glyph-name="glyph441" 
 />
    <glyph glyph-name="glyph442" 
 />
    </font>
</defs>
</svg>
